<svg width="55" height="54" viewBox="0 0 55 54" fill="none" xmlns="http://www.w3.org/2000/svg">
<path d="M23.5988 46.1834C28.7732 46.1824 33.7985 44.4672 37.8746 41.3111L50.6898 54L54.8119 49.9185L41.9967 37.2296C45.1859 33.1934 46.9192 28.2165 46.9204 23.0917C46.9204 10.3595 36.4578 0 23.5988 0C10.7399 0 0.277222 10.3595 0.277222 23.0917C0.277222 35.8239 10.7399 46.1834 23.5988 46.1834ZM23.5988 5.77293C33.2452 5.77293 41.09 13.5404 41.09 23.0917C41.09 32.643 33.2452 40.4105 23.5988 40.4105C13.9524 40.4105 6.10762 32.643 6.10762 23.0917C6.10762 13.5404 13.9524 5.77293 23.5988 5.77293Z" fill="white"/>
</svg>
