<?xml version="1.0" encoding="utf-8"?>
<!-- Generator: Adobe Illustrator 22.0.1, SVG Export Plug-In . SVG Version: 6.00 Build 0)  -->
<svg version="1.1" id="Layer_1" xmlns="http://www.w3.org/2000/svg" xmlns:xlink="http://www.w3.org/1999/xlink" x="0px" y="0px"
	 viewBox="0 0 980.1 245.7" style="enable-background:new 0 0 980.1 245.7;" xml:space="preserve">
<style type="text/css">
	.st0{display:none;}
	.st1{display:inline;}
	.st2{fill:none;}
	.st3{display:none;enable-background:new    ;}
	.st4{stroke:#000000;stroke-width:0.25;stroke-miterlimit:10;}
	.st5{stroke:#000000;stroke-width:2;stroke-miterlimit:10;}
</style>
<g class="st0">
	<path class="st1" d="M163.8,210.3h-9v16.6h-5v-16.6h-9.1v-5h9.1v-16.6h5v16.6h9V210.3z"/>
	<path class="st1" d="M178.6,209.3c2.5,0,4.6,0.8,6.2,2.5c1.7,1.7,2.5,3.8,2.5,6.3s-0.8,4.6-2.5,6.3s-3.8,2.5-6.2,2.5
		s-4.5-0.8-6.2-2.5s-2.5-3.8-2.5-6.3s0.8-4.6,2.5-6.3C174.1,210.2,176.1,209.3,178.6,209.3z M183.3,218.1c0-1.4-0.5-2.6-1.4-3.5
		s-2-1.4-3.4-1.4c-1.3,0-2.4,0.5-3.3,1.4c-0.9,0.9-1.4,2.1-1.4,3.5s0.5,2.5,1.4,3.5c0.9,0.9,2,1.4,3.3,1.4s2.5-0.5,3.4-1.4
		C182.8,220.6,183.3,219.4,183.3,218.1z"/>
	<path class="st1" d="M229.7,208.1c0,5.2-1.9,9.6-5.6,13.3c-3.7,3.6-8.2,5.5-13.4,5.5s-9.6-1.8-13.3-5.5s-5.5-8.1-5.6-13.2
		c0-5.3,1.8-9.8,5.4-13.6c3.7-3.8,8.1-5.7,13.4-5.7c5.3,0,9.8,1.9,13.5,5.7S229.8,202.8,229.7,208.1z M224.5,208.1
		c0-3.9-1.3-7.3-4-10c-2.7-2.8-6-4.1-9.7-4.1c-3.8,0-7,1.4-9.6,4.2s-3.9,6.1-3.9,9.9c0,3.7,1.4,6.9,4,9.6c2.6,2.7,5.8,4.1,9.6,4.1
		s7-1.3,9.7-4C223.1,215,224.4,211.8,224.5,208.1z M205.9,208.1c-0.1-1.4,0.3-2.6,1.3-3.6c0.9-1.1,2.1-1.6,3.7-1.5
		c1.4,0,2.5,0.6,3.5,1.6c0.9,1,1.3,2.2,1.2,3.6c-0.1,1.2-0.6,2.3-1.4,3.2c-0.9,0.9-2,1.3-3.3,1.3c-1.4,0-2.6-0.4-3.5-1.3
		S205.9,209.3,205.9,208.1z"/>
	<path class="st1" d="M257.3,188.8l16.1,38.1H268l-13.4-31.6l-13.4,31.6h-5.5l16.1-38.1L257.3,188.8L257.3,188.8z"/>
	<path class="st1" d="M286.6,209.3c2.5,0,4.6,0.8,6.2,2.5c1.7,1.7,2.5,3.8,2.5,6.3s-0.8,4.6-2.5,6.3s-3.8,2.5-6.2,2.5
		c-2.4,0-4.5-0.8-6.2-2.5s-2.5-3.8-2.5-6.3s0.8-4.6,2.5-6.3C282.1,210.2,284.2,209.3,286.6,209.3z M291.3,218.1
		c0-1.4-0.5-2.6-1.4-3.5s-2-1.4-3.4-1.4c-1.3,0-2.4,0.5-3.3,1.4s-1.4,2.1-1.4,3.5s0.5,2.5,1.4,3.5c0.9,0.9,2,1.4,3.3,1.4
		s2.5-0.5,3.4-1.4C290.9,220.6,291.3,219.4,291.3,218.1z"/>
	<path class="st1" d="M325.7,221.9v-33.1h5v38.1h-30.9v-38.1h5.1v33.1H325.7z"/>
	<path class="st1" d="M345.6,215.7l16.7,6.8v5.1l-25.8-10.4l12-10.1l-11.5-10l25.4-9.7v5l-15.8,6.1l9.3,8.1L345.6,215.7z"/>
	<path class="st1" d="M390.4,210.3h-9v16.6h-5v-16.6h-9.1v-5h9.1v-16.6h5v16.6h9V210.3z"/>
	<path class="st1" d="M424.9,226.9h-28.2v-38h28.2v5h-23.1v27.9h23.1V226.9z"/>
	<path class="st1" d="M440.3,210.4c2.5,0,4.6,0.8,6.2,2.4c1.7,1.6,2.5,3.6,2.5,5.9c0,2.3-0.8,4.2-2.5,5.8s-3.8,2.4-6.2,2.4
		c-2.4,0-4.5-0.8-6.2-2.4c-1.7-1.6-2.5-3.5-2.5-5.8s0.8-4.3,2.5-5.9S437.9,210.4,440.3,210.4z M440.5,188.9c2.5,0,4.6,0.8,6.2,2.4
		c1.7,1.6,2.5,3.5,2.5,5.9c0,2.3-0.8,4.2-2.5,5.8s-3.8,2.4-6.2,2.4c-2.4,0-4.5-0.8-6.2-2.4c-1.7-1.6-2.5-3.5-2.5-5.8
		s0.8-4.3,2.5-5.9S438.1,188.9,440.5,188.9z M445.3,218.6c0-1.4-0.5-2.6-1.4-3.5c-1-0.9-2.1-1.4-3.5-1.4c-1.3,0-2.5,0.5-3.5,1.4
		s-1.5,2.1-1.5,3.5s0.5,2.5,1.5,3.5s2.1,1.4,3.5,1.4s2.6-0.5,3.5-1.4C444.8,221.1,445.3,220,445.3,218.6z M445.5,197.1
		c0-1.4-0.5-2.6-1.4-3.5c-1-0.9-2.1-1.4-3.5-1.4c-1.3,0-2.5,0.5-3.5,1.4s-1.4,2.1-1.4,3.5s0.5,2.5,1.4,3.5c1,0.9,2.1,1.4,3.5,1.4
		s2.6-0.5,3.5-1.4C445,199.6,445.5,198.4,445.5,197.1z"/>
	<path class="st1" d="M481.1,226.9h-5.5l-8-16.4l-8,16.4h-5.4l18.5-38.1h5.4l-7.8,16L481.1,226.9z"/>
	<path class="st1" d="M513.8,226.9h-28.2v-38h28.2v5h-23.1v27.9h23.1V226.9z"/>
	<path class="st1" d="M549,226.9h-28.2v-38H549v5h-23.1v27.9H549V226.9z"/>
	<path class="st1" d="M556.1,208.5v-3h16.7v3H556.1z M564.4,212.5c2.2,0,4,0.7,5.5,2.1c1.5,1.4,2.3,3.1,2.3,5.2c0,2-0.8,3.7-2.3,5.1
		c-1.5,1.4-3.4,2.1-5.5,2.1c-2.2,0-4-0.7-5.5-2.1c-1.5-1.4-2.2-3.1-2.2-5.1s0.7-3.8,2.2-5.2C560.4,213.2,562.2,212.5,564.4,212.5z
		 M564.5,187.4c2.2,0,4,0.7,5.5,2.1s2.3,3.1,2.3,5.2c0,2-0.8,3.7-2.3,5.1c-1.5,1.4-3.4,2.1-5.5,2.1c-2.2,0-4-0.7-5.5-2.1
		c-1.5-1.4-2.2-3.1-2.2-5.1s0.7-3.8,2.2-5.2C560.4,188.1,562.3,187.4,564.5,187.4z M568.2,219.6c0-1.1-0.4-2-1.1-2.8
		c-0.7-0.7-1.6-1.1-2.7-1.1c-1.1,0-2,0.4-2.7,1.1c-0.7,0.7-1.1,1.7-1.1,2.8s0.4,2,1.1,2.8c0.7,0.8,1.7,1.1,2.7,1.1
		c1.1,0,2-0.4,2.7-1.1S568.2,220.6,568.2,219.6z M568.3,194.5c0-1.1-0.4-2-1.1-2.8c-0.7-0.7-1.6-1.1-2.7-1.1c-1.1,0-2,0.4-2.7,1.1
		c-0.7,0.7-1.1,1.7-1.1,2.8s0.4,2,1.1,2.8c0.7,0.8,1.7,1.1,2.7,1.1c1.1,0,2-0.4,2.7-1.1S568.3,195.6,568.3,194.5z"/>
	<path class="st1" d="M601.1,188.8l16.1,38.1h-5.4l-13.4-31.6L585,226.9h-5.5l16.1-38.1L601.1,188.8L601.1,188.8z"/>
	<path class="st1" d="M630.4,209.3c2.5,0,4.6,0.8,6.2,2.5s2.5,3.8,2.5,6.3s-0.8,4.6-2.5,6.3s-3.8,2.5-6.2,2.5s-4.5-0.8-6.2-2.5
		s-2.5-3.8-2.5-6.3s0.8-4.6,2.5-6.3S628,209.3,630.4,209.3z M635.1,218.1c0-1.4-0.5-2.6-1.4-3.5s-2-1.4-3.4-1.4
		c-1.3,0-2.4,0.5-3.3,1.4c-0.9,0.9-1.4,2.1-1.4,3.5s0.5,2.5,1.4,3.5s2,1.4,3.3,1.4s2.5-0.5,3.4-1.4S635.1,219.4,635.1,218.1z"/>
	<path class="st1" d="M671.8,226.9h-28.2v-38h28.2v5h-23.1v27.9h23.1V226.9z"/>
	<path class="st1" d="M698.4,210.4c4.1-0.1,7.6,1.2,10.4,3.7c2.8,2.5,4.2,6.8,4.1,12.8h-5c0.1-4.4-1-7.7-3.5-9.8
		c-1.3-1-3.3-1.5-5.9-1.6v11.4h-5.1v-11.5c-2.7,0.1-4.7,0.6-5.9,1.6c-2.4,2.2-3.6,5.5-3.5,9.9h-5c-0.1-6,1.2-10.3,4-12.9
		c2.8-2.5,6.3-3.8,10.5-3.7v-4.9c-4.2,0.1-7.6-1.2-10.4-3.7c-2.8-2.5-4.2-6.8-4.1-12.9h5.1c-0.2,4.4,1,7.7,3.5,9.9
		c1.3,1,3.2,1.5,5.9,1.6v-11.5h5.1v11.4c2.7-0.1,4.7-0.6,5.9-1.6c2.5-2.1,3.6-5.4,3.5-9.9h5c0.1,6-1.2,10.3-4,12.9
		c-2.8,2.5-6.3,3.8-10.4,3.7v5.1H698.4z"/>
	<path class="st1" d="M744,221.9v-33.1h5v38.1h-30.9v-38.1h5.1v33.1H744z"/>
	<path class="st1" d="M763.6,209.3c2.5,0,4.6,0.8,6.2,2.5s2.5,3.8,2.5,6.3s-0.8,4.6-2.5,6.3s-3.8,2.5-6.2,2.5s-4.5-0.8-6.2-2.5
		s-2.5-3.8-2.5-6.3s0.8-4.6,2.5-6.3S761.2,209.3,763.6,209.3z M768.4,218.1c0-1.4-0.5-2.6-1.4-3.5s-2-1.4-3.4-1.4
		c-1.3,0-2.4,0.5-3.3,1.4c-0.9,0.9-1.4,2.1-1.4,3.5s0.5,2.5,1.4,3.5s2,1.4,3.3,1.4s2.5-0.5,3.4-1.4S768.4,219.4,768.4,218.1z"/>
	<path class="st1" d="M814.4,208.1c-0.1,5.2-2,9.6-5.6,13.3c-3.6,3.6-8.1,5.5-13.3,5.5c-5.1,0-9.5-1.8-13.1-5.5s-5.5-8.1-5.5-13.2
		c-0.1-5.4,1.7-9.9,5.4-13.6c3.6-3.7,8.1-5.6,13.3-5.6c5.3,0,9.7,1.9,13.4,5.6C812.6,198.3,814.5,202.8,814.4,208.1z M809.2,208
		c0-3.9-1.3-7.3-4-10.1s-5.8-4.2-9.5-4.1c-3.8,0-7.1,1.4-9.7,4.2c-2.6,2.8-3.9,6.1-3.9,10c0.1,3.7,1.5,6.9,4,9.6
		c2.6,2.7,5.7,4.1,9.5,4.1c3.6,0,6.7-1.4,9.4-4.1S809.1,211.7,809.2,208z"/>
	<path class="st1" d="M829.2,210.4c2.5,0,4.6,0.8,6.2,2.4c1.7,1.6,2.5,3.6,2.5,5.9c0,2.3-0.8,4.2-2.5,5.8s-3.8,2.4-6.2,2.4
		s-4.5-0.8-6.2-2.4s-2.5-3.5-2.5-5.8s0.8-4.3,2.5-5.9S826.8,210.4,829.2,210.4z M829.4,188.9c2.5,0,4.6,0.8,6.2,2.4
		c1.7,1.6,2.5,3.5,2.5,5.9c0,2.3-0.8,4.2-2.5,5.8s-3.8,2.4-6.2,2.4s-4.5-0.8-6.2-2.4s-2.5-3.5-2.5-5.8s0.8-4.3,2.5-5.9
		S827,188.9,829.4,188.9z M834.2,218.6c0-1.4-0.5-2.6-1.4-3.5c-1-0.9-2.1-1.4-3.5-1.4c-1.3,0-2.5,0.5-3.5,1.4s-1.5,2.1-1.5,3.5
		s0.5,2.5,1.5,3.5s2.1,1.4,3.5,1.4s2.6-0.5,3.5-1.4S834.2,220,834.2,218.6z M834.4,197.1c0-1.4-0.5-2.6-1.4-3.5s-2.1-1.4-3.5-1.4
		c-1.3,0-2.5,0.5-3.5,1.4s-1.4,2.1-1.4,3.5s0.5,2.5,1.4,3.5s2.1,1.4,3.5,1.4s2.6-0.5,3.5-1.4S834.4,198.4,834.4,197.1z"/>
</g>
<polyline class="st2" points="974.6,27 974.6,85 -0.5,85 -0.5,27 "/>
<g class="st3">
	<path class="st1" d="M1298,72.1h-2.9c-0.5,0.6-1,1-1.5,1.3s-1.1,0.3-1.7,0.3c-0.9,0-1.7-0.2-2.3-0.5c-0.6-0.3-1.1-0.7-1.5-1.2
		h-48.2c-0.1,0-0.7,0.6-1.8,1.8s-1.9,1.8-2.6,1.8c-1,0-1.8-0.3-2.3-0.9c-0.2-0.8-0.4-1.5-0.6-2.2c-0.5-0.8-0.7-1.8-0.7-3.1
		c0-0.9,0.2-1.6,0.5-2.2c0.3-0.6,0.9-0.9,1.7-0.9h52.3h3.5c0-1.8-0.4-3.1-1.1-4s-1.6-1.3-2.4-1.3h-39.7c-2.9,0-5.3-0.5-7.4-1.6
		s-3.1-2.8-3.1-5.2c0-3,1.9-6.1,5.7-9.4c3.8-3.3,7.8-5,11.9-5c2,0,3.5,0.3,4.4,1s1.4,1.9,1.4,3.8c0,1.1-0.2,1.9-0.5,2.3
		c-0.4,0.4-1.2,0.6-2.4,0.6c-1.3,0-2.3-0.4-3-1.1s-1.4-1.1-2.1-1.1c-0.9,0-2.7,1.1-5.5,3.2c-2.8,2.2-4.1,4.1-4.1,5.7
		c0,0.8,0.7,1.4,2.2,1.6s4.4,0.3,8.8,0.3h10.3h24.3c2.8,0,5,1.1,6.4,3.3s2.2,4.5,2.2,6.8h2V72.1z"/>
	<path class="st1" d="M1296.5,66.3h6.2c0.6-0.2,1.3-0.4,1.9-0.7s1-0.6,1-1.1c-0.4-3.7-0.9-7.2-1.3-10.6c-0.4-3.4-0.7-5.8-1-7.3
		s-0.9-2.9-2.1-4.4s-1.7-3.1-1.7-4.9c0-1.4,0.5-2.7,1.6-3.7s2.2-1.5,3.3-1.5c0.8,0,1.5,0.5,2.1,1.5c0.7,1,1,2.1,1,3.4
		c0,0.3,0,0.9-0.1,1.8s-0.1,1.4-0.1,1.6c0,2,0.2,4.2,0.7,6.7s0.9,4.6,1.1,6.2c0.2,1.7,0.4,4.2,0.6,7.5s0.3,5.1,0.5,5.4
		c0.1,0,0.4,0.1,0.9,0.1s0.9,0,1.4,0c0.6,0,1,0,1.2,0s0.4,0,0.7,0v5.8h-5.3c-0.4,1.2-1.1,2.6-2.2,4c-1.1,1.5-2.3,2.4-3.6,2.9
		c0-0.8,0.2-1.8,0.7-3.1c0.5-1.3,0.8-2.6,0.9-3.8h-8.4V66.3z"/>
	<path class="st1" d="M1312.6,66.3h4c1.6,0,2.5,0,2.7,0s1.1,0.3,2.8,0.7c0.1-0.2,0.1-0.3,0.2-0.5s0.1-0.4,0.1-0.7
		c0-0.4-0.1-0.8-0.2-1s-0.3-0.4-0.4-0.6s-0.6-0.3-1.6-0.3c-0.8,0-1.5-0.3-2.1-1s-0.8-1.4-0.8-2.2c0-0.9,0.4-1.7,1.1-2.6
		s1.8-1.3,3.1-1.3c1,0,2.1,0.9,3.3,2.6s1.8,4,1.8,6.6c0,1.9-0.3,3.5-1,5s-1.5,2.1-2.5,2.1c-0.5-0.2-1.2-0.4-2.1-0.7
		s-2.6-0.4-5.2-0.4h-3.3V66.3z M1314.9,81.2c0-0.7,0.3-1.3,0.9-2s1.4-0.9,2.4-0.9c1,0,1.8,0.2,2.2,0.7s0.7,1.2,0.7,2.2
		c0,0.8-0.3,1.6-0.9,2.3c-0.6,0.7-1.4,1-2.5,1c-0.6,0-1.2-0.4-1.9-1.1S1314.9,82,1314.9,81.2z M1322.2,80.5c0-0.7,0.3-1.3,0.9-1.9
		s1.4-0.9,2.4-0.9c1.1,0,1.9,0.3,2.3,0.8c0.4,0.5,0.6,1.2,0.6,2.1c0,1.2-0.4,2-1.2,2.6s-1.7,0.8-2.6,0.8c-0.6-0.2-1.1-0.5-1.6-0.9
		C1322.5,82.5,1322.2,81.7,1322.2,80.5z"/>
	<path class="st1" d="M1329.9,42.8c0-0.7,0.3-1.3,0.9-2s1.4-0.9,2.4-0.9c1,0,1.8,0.2,2.2,0.7s0.7,1.2,0.7,2.2c0,0.8-0.3,1.6-0.9,2.3
		c-0.6,0.7-1.4,1-2.5,1c-0.6,0-1.2-0.4-1.9-1.1S1329.9,43.7,1329.9,42.8z M1334.9,65.1c0-3.1,1.3-5.7,3.9-7.9s5.6-3.2,9.1-3.2
		c0.2,0,0.5,0,0.9,0.1c0.3,0,0.6,0.1,0.7,0.1c0-1.7-0.6-3.2-1.8-4.7c-1.2-1.4-1.8-2.5-1.8-3c0-1.2,0.4-2.3,1.1-3.1s1.7-1.2,2.9-1.2
		c1.5,0,2.6,0.3,3.2,1s0.9,1.5,0.9,2.5c0,0.5-0.1,1-0.2,1.4c-0.1,0.4-0.2,0.8-0.3,1c0.6,1.7,1.1,3.7,1.6,5.9
		c0.5,2.2,0.8,4.7,0.8,7.3c0,3.2-0.6,6.2-1.7,9.1c-1.2,2.9-3,5.1-5.6,6.7c0-0.2-0.1-0.5-0.1-0.9c0-0.6,0.2-1.5,0.7-2.7
		s0.7-2.1,0.8-2.8c-1.2,0.5-2.4,1-3.6,1.5s-2.4,0.7-3.7,0.7c-2.7,0-4.7-0.7-5.9-2.1C1335.5,69.3,1334.9,67.5,1334.9,65.1z
		 M1338.9,41.9c0-0.7,0.3-1.3,0.9-1.9s1.4-0.9,2.4-0.9c1.1,0,1.9,0.3,2.3,0.8c0.4,0.5,0.6,1.2,0.6,2.1c0,1.2-0.4,2-1.2,2.5
		s-1.7,0.8-2.6,0.8c-0.6-0.2-1.1-0.5-1.6-0.9C1339.2,43.9,1338.9,43.1,1338.9,41.9z M1341.1,65.7c0.2,0.8,0.6,1.3,1.2,1.7
		c0.7,0.4,1.4,0.6,2.3,0.6c1,0,2-0.2,3.1-0.7c1-0.5,1.8-1,2.3-1.7c0.5-0.6,0.8-1.3,0.9-1.9s0.2-1.4,0.2-2.2
		c-0.1-1.4-0.4-2.3-0.8-2.7s-0.9-0.5-1.4-0.5c-1,0-2.2,0.4-3.6,1.1c-1.4,0.7-2.4,1.5-2.9,2.4c-0.5,0.9-0.9,1.6-1.1,2.2
		S1341,65.1,1341.1,65.7z"/>
	<path class="st1" d="M1397.5,69.9c1.2-0.9,2.1-2.5,2.9-4.7s1.3-4.6,1.7-7c0.4-2.4,0.5-4.6,0.5-6.5c0-3.2-0.5-6.1-1.4-8.6
		c-0.3,0-0.9-0.2-1.6-0.6s-1.2-1.2-1.2-2.5c0-0.9,0.2-1.7,0.7-2.6s1-1.5,1.6-1.9c0.6-0.4,1.2-0.6,1.7-0.6c1.2,0,2.2,0.8,2.9,2.4
		s1.1,3.6,1.1,5.9s-0.1,5.5-0.4,9.4s-0.7,7.5-1.3,10.5c-0.2,1.4,0.2,2.3,1.3,2.7s2.1,0.6,3.3,0.7v5.6h-5.4c-0.8,0-1.5,0.1-1.9,0.3
		c-0.4,0.3-1,0.6-1.6,1s-1.7,0.8-3.1,1.3c-1.4,0.5-2.7,1-4,1.4c0,0.5-0.4,1.5-1.2,2.9s-1.6,2.4-2.5,3.1s-1.4,1-1.7,1.1
		s-0.5,0-0.5-0.2c0-0.3,0.4-1.1,1.2-2.4s1.2-2.5,1.3-3.4c-2.2-0.2-4.4-0.7-6.5-1.4s-3.6-1.8-4.4-3.1s-1.4-2.8-1.9-4.4
		c-0.5-1.6-0.8-3.1-0.8-4.6c0-0.5,0-0.8,0.1-1.1c0.2,0.5,0.5,0.9,0.7,1.4c0.1,0.4,0.3,1.1,0.6,1.9c1.4,2,2.9,3.5,4.5,4.6
		s3.5,1.7,5.9,1.7c0.6,0,1.3-0.1,1.9-0.2c0-1.2-0.1-2.4-0.4-3.8s-0.9-3.9-1.9-7.5l-2.9-11c-0.4-1.2-1.1-2-2.1-2.5s-1.5-0.9-1.6-1.3
		s-0.2-0.9-0.2-1.5c0-1.5,0.5-2.9,1.4-4.1s2-2,3.1-2.2c1.1-0.2,1.9,0.1,2.4,1s0.8,1.6,0.8,2.2c0,0.2-0.1,0.7-0.2,1.6
		s-0.2,1.7-0.2,2.5c0,0.4,0,0.8,0,1s0.1,1.1,0.4,2.5s0.8,3.6,1.6,6.6s1.6,5.9,2.3,8.8s1.3,5.1,1.6,6.8c0.5-0.1,1.1-0.2,1.7-0.3
		S1397,70.4,1397.5,69.9z"/>
	<path class="st1" d="M1421.7,70.7c-1-0.9-1.6-1.4-1.8-1.4c-0.3,0-0.9,0.5-1.8,1.4s-1.6,1.4-1.8,1.4h-9.2v-5.8h5.9
		c0.8-0.1,1.4-0.2,1.7-0.5c0.4-0.2,0.8-0.5,1.4-0.8c-1.2-0.1-2.4-0.3-3.6-0.4c-1.8-0.4-2.6-1.1-2.6-2.3c0-1.3,0.5-2.2,1.5-2.9
		s2.3-1.3,3.8-2.1c0.7-0.5,1.5-1.3,2.5-2.6s1.9-1.9,2.7-1.9c1,0,2,0.6,3,1.9c1,1.3,1.8,2.1,2.4,2.6c1.1,0.6,2.1,1.2,3.2,1.8
		c1.2,0.8,1.7,1.9,1.7,3.2c0,1.3-0.6,2-1.9,2.3c-1.3,0.3-2.7,0.4-4.1,0.5c0.4,0.3,0.7,0.5,1.1,0.7s1.1,0.4,2.1,0.5h5.8v5.8h-10.1
		C1423.3,72.1,1422.7,71.7,1421.7,70.7z M1419.5,58.6c-0.2,0.7-0.5,1.2-1,1.3c-0.5,0.1-1.1,0.3-1.9,0.6s-1.2,0.5-1.2,0.8
		c0,0.3,0.5,0.6,1.4,0.7s2,0.3,3.3,0.4c0.6,0,1.6-0.1,2.9-0.4c1.3-0.2,1.9-0.5,1.9-0.9c0-0.2-0.3-0.4-0.8-0.6s-1.1-0.5-1.8-0.6
		c-0.6-0.1-1.1-0.6-1.3-1.3c-0.2-0.7-0.5-1.1-0.7-1.1C1419.9,57.5,1419.7,57.9,1419.5,58.6z"/>
	<path class="st1" d="M1445.1,61.1c0,3-0.4,6.1-1.2,9.1s-2.4,4.5-4.7,4.5c-0.3,0-0.9-0.4-1.6-1.3s-1.4-1.3-2-1.3h-3.8v-5.8h5.3
		c0.5,0,1,0.2,1.5,0.5c0.5,0.3,0.9,0.6,1.2,0.7c0.1-1.6,0.2-3.4,0.3-5.3s0.1-3.7,0.1-5.4c0-2-0.2-3.8-0.5-5.3
		c-0.4-1.6-0.6-2.7-0.8-3.6s-0.9-2.2-2-4.2c-1.2-1.9-1.8-3.7-1.8-5.1c0-1.4,0.5-2.7,1.6-3.7c1.1-1,2.2-1.5,3.3-1.5
		c0.7,0,1.4,0.5,2.1,1.5c0.7,1,1,2.1,1,3.4c0,0.4,0,1-0.1,1.8s-0.1,1.3-0.1,1.6c0,2,0.2,4.2,0.7,6.7s0.7,4.2,0.8,5.1
		c0.1,0.9,0.3,2.1,0.5,3.6S1445.1,59.8,1445.1,61.1z"/>
	<path class="st1" d="M1468.5,72.1h-3c-1.8,4-3.6,7.2-5.3,9.7s-3.9,4.5-6.5,6s-6,2.3-10,2.3c-1.7,0-3.1-0.2-4-0.7s-2.1-1.3-3.4-2.5
		c-1.3-1.2-2.3-2.7-3-4.3s-1.4-4.5-1.8-8.6l0.3-1.9c0.5,0.2,0.9,1,1.4,2.2s1,3,1.8,5.3c1.5,3.3,3.1,5.2,5,5.6s3.3,0.7,4.6,0.7
		c1.2,0,2.1,0,2.7,0.1c2.9,0,5.7-1.6,8.5-4.8c2.8-3.2,4.2-6.3,4.2-9.4c-3.1,0-5.3-0.6-6.6-1.9c-1.3-1.3-1.9-3-1.9-5.1
		c0-1.5,0.6-3.6,1.9-6.3c1.3-2.7,2.9-4,4.9-4c2.7,0,4.8,1.9,6.1,5.6c0.9,3.8,1.3,5.8,1.4,6h2.9V72.1z M1457,62.9
		c-0.4,0.3-0.5,0.7-0.5,1.2c0,0.5,0.3,1.1,0.8,1.6c0.5,0.5,1.2,0.7,2,0.7c0.3,0,0.6,0,0.9-0.1s0.4-0.3,0.4-0.8
		c0-1.1-0.3-1.9-0.9-2.3c-0.6-0.4-1.1-0.6-1.6-0.6C1457.6,62.6,1457.3,62.7,1457,62.9z"/>
	<path class="st1" d="M1466.8,66.3h6.3c0-1.8,0.3-3.4,1-4.6s2.2-1.8,4.5-1.8c1.6,0,3.2,0.9,4.8,2.8s2.4,4.5,2.4,7.8
		c0,2.1-0.5,3.6-1.5,4.5s-2.2,1.2-3.7,1.2c-1.3,0-2.5-0.4-3.4-1.3c-0.8-1-1.7-1.9-2.5-2.8h-8V66.3z M1478.1,69.4
		c0.5,1,1.1,1.5,1.8,1.5c0.2,0,0.5-0.1,0.9-0.2c0.4-0.2,0.6-0.6,0.6-1.4c0-0.4-0.1-1-0.3-1.6s-0.5-1.2-1-1.6c-0.5-0.4-1-0.6-1.6-0.4
		c-0.3,0.1-0.6,0.3-0.7,0.6s-0.2,0.6-0.2,1c0,0.4,0,0.8,0.1,1.1S1477.9,69,1478.1,69.4z"/>
	<path class="st1" d="M1526.4,69.9c1.2-0.9,2.1-2.5,2.9-4.7s1.3-4.6,1.7-7c0.4-2.4,0.5-4.6,0.5-6.5c0-3.2-0.5-6.1-1.4-8.6
		c-0.3,0-0.9-0.2-1.6-0.6s-1.2-1.2-1.2-2.5c0-0.9,0.2-1.7,0.7-2.6s1-1.5,1.6-1.9c0.6-0.4,1.2-0.6,1.7-0.6c1.2,0,2.2,0.8,2.9,2.4
		s1.1,3.6,1.1,5.9s-0.1,5.5-0.4,9.4s-0.7,7.5-1.3,10.5c-0.2,1.4,0.2,2.3,1.3,2.7s2.1,0.6,3.3,0.7v5.6h-5.4c-0.8,0-1.5,0.1-1.9,0.3
		c-0.4,0.3-1,0.6-1.6,1s-1.7,0.8-3.1,1.3c-1.4,0.5-2.7,1-4,1.4c0,0.5-0.4,1.5-1.2,2.9s-1.6,2.4-2.5,3.1s-1.4,1-1.7,1.1
		s-0.5,0-0.5-0.2c0-0.3,0.4-1.1,1.2-2.4s1.2-2.5,1.3-3.4c-2.2-0.2-4.4-0.7-6.5-1.4s-3.6-1.8-4.4-3.1s-1.4-2.8-1.9-4.4
		c-0.5-1.6-0.8-3.1-0.8-4.6c0-0.5,0-0.8,0.1-1.1c0.2,0.5,0.5,0.9,0.7,1.4c0.1,0.4,0.3,1.1,0.6,1.9c1.4,2,2.9,3.5,4.5,4.6
		s3.5,1.7,5.9,1.7c0.6,0,1.3-0.1,1.9-0.2c0-1.2-0.1-2.4-0.4-3.8s-0.9-3.9-1.9-7.5l-2.9-11c-0.4-1.2-1.1-2-2.1-2.5s-1.5-0.9-1.6-1.3
		s-0.2-0.9-0.2-1.5c0-1.5,0.5-2.9,1.4-4.1s2-2,3.1-2.2c1.1-0.2,1.9,0.1,2.4,1s0.8,1.6,0.8,2.2c0,0.2-0.1,0.7-0.2,1.6
		s-0.2,1.7-0.2,2.5c0,0.4,0,0.8,0,1s0.1,1.1,0.4,2.5s0.8,3.6,1.6,6.6s1.6,5.9,2.3,8.8s1.3,5.1,1.6,6.8c0.5-0.1,1.1-0.2,1.7-0.3
		S1525.9,70.4,1526.4,69.9z"/>
	<path class="st1" d="M1536,66.3h1.8c1.3-0.2,2.6-0.3,4-0.3c1.5,0,2.9,0.1,4,0.4s2.2,0.8,3.1,1.5c0.5-1.5,0.7-2.5,0.7-3
		c0-0.6-0.4-0.9-1.1-0.9c-2.3,0-4.3-0.4-5.9-1.1s-2.4-2-2.4-3.8c0-2.1,0.8-4.3,2.4-6.6s3.1-3.5,4.3-3.7s2-0.3,2.3-0.3
		c1.8,0,3.2,0.8,4.4,2.5s1.9,3.4,2.1,5.1s0.3,2.8,0.4,3.5s0.1,1.2,0.1,1.6c0,1.9-0.2,3.6-0.5,5.3s-0.8,3.1-1.5,4.4s-1.2,2.1-1.6,2.5
		s-0.9,0.6-1.6,0.7c-1,0.2-1.9,0-2.9-0.5c-1.1-0.6-2.2-1.3-3.3-1.9c-0.7,0.1-1.8,0.2-3.3,0.3s-3,0.1-4.4,0.1l-1.3,0.1V66.3z
		 M1538.2,41.4c0-0.7,0.3-1.3,0.9-1.9s1.4-0.9,2.4-0.9c1,0,1.8,0.2,2.2,0.7s0.7,1.2,0.7,2.2c0,0.8-0.3,1.6-0.9,2.3s-1.4,1.1-2.5,1.1
		c-0.6,0-1.2-0.4-1.9-1.1S1538.2,42.2,1538.2,41.4z M1546.3,56.4c-0.3,0.6-0.4,1.1-0.4,1.5c0,0.5,0.4,1,1.3,1.4s1.7,0.6,2.3,0.6
		c0.8,0,1.3-0.5,1.3-1.6c0-0.3,0-0.7-0.1-1.3s-0.5-1.1-1.1-1.8s-1.1-1-1.5-1c-0.3,0-0.6,0.2-0.9,0.5S1546.6,55.7,1546.3,56.4z
		 M1547.2,40.5c0-0.7,0.3-1.3,0.9-2s1.4-0.9,2.4-0.9c1.1,0,1.9,0.3,2.3,0.8s0.6,1.2,0.6,2.1c0,1.2-0.4,2-1.2,2.5s-1.7,0.8-2.6,0.8
		c-0.5-0.2-1.1-0.5-1.6-0.9S1547.2,41.7,1547.2,40.5z"/>
	<path class="st1" d="M1575.4,72.1c-0.3-0.1-0.6-0.1-0.9-0.1s-1.1,0-2.2,0c-0.9,0-1.5,0.1-1.9,0.3s-1.1,1-2.1,2.4s-2.5,2.4-4.4,3.1
		l-0.3-0.9c0.4-0.8,1.1-1.8,2.2-3.2c0.8-1.6,1.2-4,1.2-7.3l-3.2-18c-0.7-1.2-1.4-2.4-2.1-3.7s-1.1-2.6-1.1-3.9c0-2,0.6-3.5,1.7-4.5
		s2.2-1.5,3.2-1.5c0.8,0,1.4,0.4,1.9,1.2s0.7,1.8,0.7,2.9c0,0.8-0.2,2.1-0.5,3.9s-0.4,3-0.4,3.4c0.5,3.5,1.1,6.8,1.7,9.8
		s1.2,5.4,1.6,7s0.7,2.8,0.9,3.5h4.1V72.1z"/>
	<path class="st1" d="M1573.6,66.3h4c1.6,0,2.5,0,2.7,0s1.1,0.3,2.8,0.7c0.1-0.2,0.1-0.3,0.2-0.5s0.1-0.4,0.1-0.7
		c0-0.4-0.1-0.8-0.2-1s-0.3-0.4-0.4-0.6s-0.6-0.3-1.6-0.3c-0.8,0-1.5-0.3-2.1-1s-0.8-1.4-0.8-2.2c0-0.9,0.4-1.7,1.1-2.6
		s1.8-1.3,3.1-1.3c1,0,2.1,0.9,3.3,2.6s1.8,4,1.8,6.6c0,1.9-0.3,3.5-1,5s-1.5,2.1-2.5,2.1c-0.5-0.2-1.2-0.4-2.1-0.7
		s-2.6-0.4-5.2-0.4h-3.3V66.3z M1578.9,48.9c0-0.7,0.3-1.3,0.9-1.9s1.4-0.9,2.4-0.9c1.9,0,2.9,1,2.9,2.9c0,0.8-0.3,1.6-0.9,2.3
		s-1.4,1.1-2.5,1.1c-0.6,0-1.2-0.4-1.9-1.1S1578.9,49.7,1578.9,48.9z"/>
	<path class="st1" d="M1613,72.1h-3c-1.8,4-3.6,7.2-5.3,9.7s-3.9,4.5-6.5,6s-6,2.3-10,2.3c-1.7,0-3.1-0.2-4-0.7s-2.1-1.3-3.4-2.5
		s-2.3-2.7-3-4.3s-1.4-4.5-1.8-8.6l0.3-1.9c0.5,0.2,0.9,1,1.4,2.2s1,3,1.8,5.3c1.5,3.3,3.1,5.2,5,5.6s3.3,0.7,4.6,0.7s2.1,0,2.7,0.1
		c2.9,0,5.7-1.6,8.5-4.8s4.2-6.3,4.2-9.4c-3.1,0-5.3-0.6-6.6-1.9s-1.9-3-1.9-5.1c0-1.5,0.6-3.6,1.9-6.3s2.9-4,4.9-4
		c2.7,0,4.8,1.9,6.1,5.6c0.9,3.8,1.3,5.8,1.4,6h2.9V72.1z M1601.6,62.9c-0.4,0.3-0.5,0.7-0.5,1.2c0,0.5,0.3,1.1,0.8,1.6
		s1.2,0.7,2,0.7c0.3,0,0.6,0,0.9-0.1s0.4-0.3,0.4-0.8c0-1.1-0.3-1.9-0.9-2.3s-1.1-0.6-1.6-0.6C1602.2,62.6,1601.9,62.7,1601.6,62.9z
		"/>
	<path class="st1" d="M1629.9,72.1h-5.9c-0.4,0.1-0.6,0.2-0.9,0.2c-0.4,0-1-0.4-1.6-1.3s-1.2-1.6-1.7-2c-0.6,1.1-1,1.9-1.3,2.4
		s-0.8,0.8-1.5,0.8h-5.5v-5.8h2.9c3.1,0,4.9-0.9,5.3-2.6s1.2-2.6,2.4-2.6c0.2,0,0.8,0.9,1.9,2.6s2.5,2.6,4.1,2.6h1.9V72.1z
		 M1614.3,50.5c0-0.7,0.3-1.3,0.9-2s1.4-0.9,2.4-0.9c1.9,0,2.9,1,2.9,2.9c0,0.8-0.3,1.6-0.9,2.3s-1.4,1.1-2.5,1.1
		c-0.6,0-1.2-0.4-1.9-1.1S1614.3,51.3,1614.3,50.5z"/>
	<path class="st1" d="M1628.2,66.3h4c1.6,0,2.5,0,2.7,0s1.1,0.3,2.8,0.7c0.1-0.2,0.1-0.3,0.2-0.5s0.1-0.4,0.1-0.7
		c0-0.4-0.1-0.8-0.2-1s-0.3-0.4-0.4-0.6s-0.6-0.3-1.6-0.3c-0.8,0-1.5-0.3-2.1-1s-0.8-1.4-0.8-2.2c0-0.9,0.4-1.7,1.1-2.6
		s1.8-1.3,3.1-1.3c1,0,2.1,0.9,3.3,2.6s1.8,4,1.8,6.6c0,1.9-0.3,3.5-1,5s-1.5,2.1-2.5,2.1c-0.5-0.2-1.2-0.4-2.1-0.7
		s-2.6-0.4-5.2-0.4h-3.3V66.3z M1630.4,81.2c0-0.7,0.3-1.3,0.9-2s1.4-0.9,2.4-0.9c1,0,1.8,0.2,2.2,0.7s0.7,1.2,0.7,2.2
		c0,0.8-0.3,1.6-0.9,2.3s-1.4,1-2.5,1c-0.6,0-1.2-0.4-1.9-1.1S1630.4,82,1630.4,81.2z M1637.8,80.5c0-0.7,0.3-1.3,0.9-1.9
		s1.4-0.9,2.4-0.9c1.1,0,1.9,0.3,2.3,0.8s0.6,1.2,0.6,2.1c0,1.2-0.4,2-1.2,2.6s-1.7,0.8-2.6,0.8c-0.6-0.2-1.1-0.5-1.6-0.9
		S1637.8,81.7,1637.8,80.5z"/>
	<path class="st1" d="M1645.5,42.8c0-0.7,0.3-1.3,0.9-2s1.4-0.9,2.4-0.9c1,0,1.8,0.2,2.2,0.7s0.7,1.2,0.7,2.2c0,0.8-0.3,1.6-0.9,2.3
		s-1.4,1-2.5,1c-0.6,0-1.2-0.4-1.9-1.1S1645.5,43.7,1645.5,42.8z M1650.4,65.1c0-3.1,1.3-5.7,3.9-7.9s5.6-3.2,9.1-3.2
		c0.2,0,0.5,0,0.9,0.1s0.6,0.1,0.7,0.1c0-1.7-0.6-3.2-1.8-4.7s-1.8-2.5-1.8-3c0-1.2,0.4-2.3,1.1-3.1s1.7-1.2,2.9-1.2
		c1.5,0,2.6,0.3,3.2,1s0.9,1.5,0.9,2.5c0,0.5-0.1,1-0.2,1.4s-0.2,0.8-0.3,1c0.6,1.7,1.1,3.7,1.6,5.9s0.8,4.7,0.8,7.3
		c0,3.2-0.6,6.2-1.7,9.1s-3,5.1-5.6,6.7c0-0.2-0.1-0.5-0.1-0.9c0-0.6,0.2-1.5,0.7-2.7s0.7-2.1,0.8-2.8c-1.2,0.5-2.4,1-3.6,1.5
		s-2.4,0.7-3.7,0.7c-2.7,0-4.7-0.7-5.9-2.1S1650.4,67.5,1650.4,65.1z M1654.5,41.9c0-0.7,0.3-1.3,0.9-1.9s1.4-0.9,2.4-0.9
		c1.1,0,1.9,0.3,2.3,0.8s0.6,1.2,0.6,2.1c0,1.2-0.4,2-1.2,2.5s-1.7,0.8-2.6,0.8c-0.6-0.2-1.1-0.5-1.6-0.9S1654.5,43.1,1654.5,41.9z
		 M1656.7,65.7c0.2,0.8,0.6,1.3,1.2,1.7s1.4,0.6,2.3,0.6c1,0,2-0.2,3.1-0.7s1.8-1,2.3-1.7s0.8-1.3,0.9-1.9s0.2-1.4,0.2-2.2
		c-0.1-1.4-0.4-2.3-0.8-2.7s-0.9-0.5-1.4-0.5c-1,0-2.2,0.4-3.6,1.1s-2.4,1.5-2.9,2.4s-0.9,1.6-1.1,2.2S1656.6,65.1,1656.7,65.7z"/>
	<path class="st1" d="M1688.6,88.4c4.6-0.7,8.6-2.6,12-5.7s5.1-6.7,5.1-11c-0.5,0-1.3,0.1-2.5,0.4s-2,0.4-2.4,0.4
		c-0.3,0-1.1-0.1-2.4-0.4s-2.3-1-3-2.2s-1-3.1-1-5.7c0-3.9,0.9-6.7,2.7-8.5s3.7-2.7,5.6-2.7c2.7,0,4.9,1.5,6.6,4.5s2.5,6.6,2.5,10.9
		c0,6.9-2.4,12.7-7.3,17.4s-10.3,7.1-16.2,7.1c-2.2,0-4.7-0.3-7.6-1s-5.5-2.1-7.8-4.4s-4.1-4.1-5.5-5.7s-2.2-3-2.7-4.3
		s-0.7-2.2-0.8-2.6s-0.2-0.7-0.2-0.8c0-0.4,0.2-0.6,0.5-0.5c0.3,0,0.5,0.3,0.6,0.7s0.1,0.8,0.1,1.1c1.8,2.6,3.3,4.5,4.5,5.7
		s3,2.5,5.2,3.9s4.2,2.4,6,2.8s3.5,0.7,5.2,0.7C1686.8,88.6,1687.6,88.5,1688.6,88.4z M1701.7,59.5c-0.9,0-1.5,0.6-1.8,1.8
		c-0.2,1.4-0.3,2.3-0.4,2.6c-0.1,0.6,0.2,1.3,0.9,2s1.3,1.1,1.9,1c1.2-0.2,2-0.4,2.4-0.8s0.6-0.9,0.6-1.5c0-0.4-0.1-0.8-0.1-0.9
		c0-0.7-0.3-1.6-1-2.7S1702.7,59.3,1701.7,59.5z"/>
	<path class="st1" d="M1737.7,69.9c1.2-0.9,2.1-2.5,2.9-4.7s1.3-4.6,1.7-7s0.5-4.6,0.5-6.5c0-3.2-0.5-6.1-1.4-8.6
		c-0.3,0-0.9-0.2-1.6-0.6s-1.2-1.2-1.2-2.5c0-0.9,0.2-1.7,0.7-2.6s1-1.5,1.6-1.9s1.2-0.6,1.7-0.6c1.2,0,2.2,0.8,2.9,2.4
		s1.1,3.6,1.1,5.9s-0.1,5.5-0.4,9.4s-0.7,7.5-1.3,10.5c-0.2,1.4,0.2,2.3,1.3,2.7s2.1,0.6,3.3,0.7v5.6h-5.4c-0.8,0-1.5,0.1-1.9,0.3
		c-0.4,0.3-1,0.6-1.6,1s-1.7,0.8-3.1,1.3s-2.7,1-4,1.4c0,0.5-0.4,1.5-1.2,2.9s-1.6,2.4-2.5,3.1s-1.4,1-1.7,1.1s-0.5,0-0.5-0.2
		c0-0.3,0.4-1.1,1.2-2.4s1.2-2.5,1.3-3.4c-2.2-0.2-4.4-0.7-6.5-1.4s-3.6-1.8-4.4-3.1s-1.4-2.8-1.9-4.4s-0.8-3.1-0.8-4.6
		c0-0.5,0-0.8,0.1-1.1c0.2,0.5,0.5,0.9,0.7,1.4c0.1,0.4,0.3,1.1,0.6,1.9c1.4,2,2.9,3.5,4.5,4.6s3.5,1.7,5.9,1.7
		c0.6,0,1.3-0.1,1.9-0.2c0-1.2-0.1-2.4-0.4-3.8s-0.9-3.9-1.9-7.5l-2.9-11c-0.4-1.2-1.1-2-2.1-2.5s-1.5-0.9-1.6-1.3s-0.2-0.9-0.2-1.5
		c0-1.5,0.5-2.9,1.4-4.1s2-2,3.1-2.2c1.1-0.2,1.9,0.1,2.4,1s0.8,1.6,0.8,2.2c0,0.2-0.1,0.7-0.2,1.6s-0.2,1.7-0.2,2.5
		c0,0.4,0,0.8,0,1s0.1,1.1,0.4,2.5s0.8,3.6,1.6,6.6s1.6,5.9,2.3,8.8s1.3,5.1,1.6,6.8c0.5-0.1,1.1-0.2,1.7-0.3
		S1737.2,70.4,1737.7,69.9z"/>
	<path class="st1" d="M1768.4,72.1h-4.8c-0.7,0-1.4-0.2-2.3-0.6s-1.4-0.5-1.6-0.5c-1,0.3-1.9,0.6-2.8,0.8s-1.7,0.3-2.5,0.3h-1.8
		h-5.2v-5.8h5.9c-0.4,0-0.7-0.6-1.1-1.9s-0.6-2.5-0.6-3.8c0-2.1,0.6-3.7,1.9-4.8s2.9-1.6,4.8-1.6c2.2,0,4,0.9,5.4,2.6
		s2.1,3.7,2.1,5.8c0,0.4-0.1,0.8-0.2,1.3s-0.4,1.3-0.8,2.3h3.5V72.1z M1754.1,47.2c0,1-0.3,1.7-0.9,2.2s-1.4,0.7-2.3,0.7
		c-0.7,0-1.3-0.3-1.8-0.8s-0.7-1.2-0.7-2.1c0-0.9,0.4-1.7,1.1-2.3s1.3-0.9,1.8-0.9c1.2,0,1.9,0.3,2.3,0.9S1754.1,46.3,1754.1,47.2z
		 M1761.4,47.2c0,1-0.3,1.7-0.8,2.2s-1.3,0.7-2.1,0.7c-2.3,0-3.5-0.8-3.5-2.5c0-1.1,0.3-2,1-2.7s1.6-1.1,2.8-1.1
		c0.5,0.3,1.1,0.6,1.7,1S1761.4,46,1761.4,47.2z M1757.1,62.5c0.1,0.6,0.3,1.2,0.5,1.7s0.6,0.7,1,0.7c0.3,0,0.6-0.2,0.9-0.6
		s0.6-0.8,0.8-1.2s0.3-0.9,0.2-1.4c-0.1-0.6-0.3-1.1-0.5-1.6s-0.8-0.7-1.6-0.5c-0.6,0.1-1,0.3-1.2,0.6s-0.2,0.6-0.2,0.9
		C1756.9,61.4,1756.9,61.9,1757.1,62.5z"/>
	<path class="st1" d="M1785.1,72.1h-5.9c-0.4,0.1-0.6,0.2-0.9,0.2c-0.4,0-1-0.4-1.6-1.3s-1.2-1.6-1.7-2c-0.6,1.1-1,1.9-1.3,2.4
		s-0.8,0.8-1.5,0.8h-5.5v-5.8h2.9c3.1,0,4.9-0.9,5.3-2.6s1.2-2.6,2.4-2.6c0.2,0,0.8,0.9,1.9,2.6s2.5,2.6,4.1,2.6h1.9V72.1z
		 M1768.9,49.1c0-0.7,0.3-1.3,0.9-2s1.4-0.9,2.4-0.9c1,0,1.8,0.2,2.2,0.7s0.7,1.2,0.7,2.2c0,0.8-0.3,1.6-0.9,2.3s-1.4,1-2.5,1
		c-0.6,0-1.2-0.4-1.9-1.1S1768.9,49.9,1768.9,49.1z M1776.7,49.1c0-0.7,0.3-1.3,0.9-2s1.4-0.9,2.4-0.9c1.1,0,1.9,0.3,2.3,0.8
		s0.6,1.2,0.6,2.1c0,1.2-0.4,2-1.2,2.5s-1.7,0.8-2.7,0.8c-0.5-0.2-1.1-0.5-1.6-0.9S1776.7,50.3,1776.7,49.1z"/>
	<path class="st1" d="M1825.5,74.4c-1,0-1.8-0.6-2.4-1.8s-1.3-1.8-2-1.8c-0.8,0-1.5,0.2-2.1,0.5s-3,0.5-7.4,0.5
		c-3.3,0-5.7,0-7.3-0.1s-2.9-0.2-4-0.3c-0.8,0-1.5,0.1-2.2,0.2s-1.3,0.2-1.8,0.3s-1.1,0.5-1.9,1.2s-1.6,1-2.5,1c-1,0-1.7-0.3-2.2-1
		s-0.8-1-1.1-1h-1.7h-1.1h-0.8c-0.6,0-1,0-1.2-0.1v-5.8l2.9,0.1c0-1.7,0.1-2.9,0.4-3.8s0.7-1.2,1.3-1.2c1.4,0,2.5,1.5,3,4.4
		c1.3-1.5,2.7-3.2,4.4-5.2s3.9-3.8,6.7-5.4s6.3-2.4,10.6-2.4c3.8,0,7.1,1.3,9.9,3.9s4.3,5.8,4.6,9.6c0,1.8-0.2,3.6-0.4,5.4
		S1826.5,74.4,1825.5,74.4z M1821.4,65c-0.6-1.6-1.9-3-3.9-4.2s-3.6-1.9-4.9-2.1s-2.2-0.2-2.6-0.2c-2,0-4.1,0.6-6.4,1.9
		s-4.1,3.1-5.6,5.4c0.7,0.2,1.6,0.4,2.7,0.5s2.9,0.2,5.4,0.2c2.1,0,4.7-0.1,7.9-0.4S1819.7,65.5,1821.4,65z"/>
	<path class="st1" d="M1834.1,44.1c-0.2-1-0.5-1.8-1-2.4s-1-1.1-1.5-1.7c-0.2-1.8,0.4-3.4,1.7-4.8s2.7-2.2,4.1-2.2
		c1,0,1.8,0.5,2.2,1.4s0.6,1.7,0.5,2.3c-0.3,1-0.6,2-0.9,3s-0.5,2.3-0.5,3.5c0,2.6,0.3,5.9,0.8,10s0.8,7.1,0.8,9.2
		c0,1.7-1,4.1-2.9,7.2s-4.6,5.2-7.8,6.1c1.8-2.1,3-3.9,3.7-5.1s1.2-2.5,1.5-3.8s0.5-2.3,0.5-3.1s0.1-1.7,0.1-2.5
		c0-0.7,0-1.6-0.1-2.8s-0.2-2.1-0.2-3L1834.1,44.1z"/>
	<path class="st1" d="M1871.7,72.1h-3c-0.7,0-1.6-0.2-2.7-0.6s-1.6-0.6-1.7-0.6c-0.1,0-0.4,0.2-0.9,0.6s-1.3,0.6-2.7,0.6
		c-0.7,0-1.7-0.1-3.1-0.4s-2.4-0.4-3.2-0.4c-2.3,0-4.4,0.7-6.2,2.2c-1.6,1.8-3.1,3.7-4.6,5.5c-0.2-0.6-0.2-1,0-1.2
		c0-2.2,0.9-4.4,2.8-6.5s3.6-3.4,5.2-3.9s2.9-0.9,4.1-1.1s1.9-0.3,2.2-0.4c-2.3-1.3-4.2-2.5-5.7-3.6s-2.3-2.8-2.3-5.1
		c0-1.5,0.5-2.8,1.4-3.8s2.1-1.6,3.6-1.6c1,0,1.8,0.4,2.3,1.1s0.8,1.4,0.8,2c0,1.3-0.5,2-1.6,2.2s-1.6,0.4-1.6,0.8
		c0,1,1.7,1.9,5.1,2.8s5.5,2.6,6.4,5.2c1.1,0.4,2.5,0.5,4.2,0.5h1.1V72.1z"/>
	<path class="st1" d="M1870.4,66.3h4c1.6,0,2.5,0,2.7,0s1.1,0.3,2.8,0.7c0.1-0.2,0.1-0.3,0.2-0.5s0.1-0.4,0.1-0.7
		c0-0.4-0.1-0.8-0.2-1s-0.3-0.4-0.4-0.6s-0.6-0.3-1.6-0.3c-0.8,0-1.5-0.3-2.1-1s-0.8-1.4-0.8-2.2c0-0.9,0.4-1.7,1.1-2.6
		s1.8-1.3,3.1-1.3c1,0,2.1,0.9,3.3,2.6s1.8,4,1.8,6.6c0,1.9-0.3,3.5-1,5s-1.5,2.1-2.5,2.1c-0.5-0.2-1.2-0.4-2.1-0.7
		s-2.6-0.4-5.2-0.4h-3.3V66.3z M1872.6,81.2c0-0.7,0.3-1.3,0.9-2s1.4-0.9,2.4-0.9c1,0,1.8,0.2,2.2,0.7s0.7,1.2,0.7,2.2
		c0,0.8-0.3,1.6-0.9,2.3s-1.4,1-2.5,1c-0.6,0-1.2-0.4-1.9-1.1S1872.6,82,1872.6,81.2z M1880,80.5c0-0.7,0.3-1.3,0.9-1.9
		s1.4-0.9,2.4-0.9c1.1,0,1.9,0.3,2.3,0.8s0.6,1.2,0.6,2.1c0,1.2-0.4,2-1.2,2.6s-1.7,0.8-2.6,0.8c-0.6-0.2-1.1-0.5-1.6-0.9
		S1880,81.7,1880,80.5z"/>
	<path class="st1" d="M1887.6,42.8c0-0.7,0.3-1.3,0.9-2s1.4-0.9,2.4-0.9c1,0,1.8,0.2,2.2,0.7s0.7,1.2,0.7,2.2c0,0.8-0.3,1.6-0.9,2.3
		s-1.4,1-2.5,1c-0.6,0-1.2-0.4-1.9-1.1S1887.6,43.7,1887.6,42.8z M1892.6,65.1c0-3.1,1.3-5.7,3.9-7.9s5.6-3.2,9.1-3.2
		c0.2,0,0.5,0,0.9,0.1s0.6,0.1,0.7,0.1c0-1.7-0.6-3.2-1.8-4.7s-1.8-2.5-1.8-3c0-1.2,0.4-2.3,1.1-3.1s1.7-1.2,2.9-1.2
		c1.5,0,2.6,0.3,3.2,1s0.9,1.5,0.9,2.5c0,0.5-0.1,1-0.2,1.4s-0.2,0.8-0.3,1c0.6,1.7,1.1,3.7,1.6,5.9s0.8,4.7,0.8,7.3
		c0,3.2-0.6,6.2-1.7,9.1s-3,5.1-5.6,6.7c0-0.2-0.1-0.5-0.1-0.9c0-0.6,0.2-1.5,0.7-2.7s0.7-2.1,0.8-2.8c-1.2,0.5-2.4,1-3.6,1.5
		s-2.4,0.7-3.7,0.7c-2.7,0-4.7-0.7-5.9-2.1S1892.6,67.5,1892.6,65.1z M1896.7,41.9c0-0.7,0.3-1.3,0.9-1.9s1.4-0.9,2.4-0.9
		c1.1,0,1.9,0.3,2.3,0.8s0.6,1.2,0.6,2.1c0,1.2-0.4,2-1.2,2.5s-1.7,0.8-2.6,0.8c-0.6-0.2-1.1-0.5-1.6-0.9S1896.7,43.1,1896.7,41.9z
		 M1898.9,65.7c0.2,0.8,0.6,1.3,1.2,1.7s1.4,0.6,2.3,0.6c1,0,2-0.2,3.1-0.7s1.8-1,2.3-1.7s0.8-1.3,0.9-1.9s0.2-1.4,0.2-2.2
		c-0.1-1.4-0.4-2.3-0.8-2.7s-0.9-0.5-1.4-0.5c-1,0-2.2,0.4-3.6,1.1s-2.4,1.5-2.9,2.4s-0.9,1.6-1.1,2.2S1898.8,65.1,1898.9,65.7z"/>
	<path class="st1" d="M1930.7,88.4c4.6-0.7,8.6-2.6,12-5.7s5.1-6.7,5.1-11c-0.5,0-1.3,0.1-2.5,0.4s-2,0.4-2.4,0.4
		c-0.3,0-1.1-0.1-2.4-0.4s-2.3-1-3-2.2s-1-3.1-1-5.7c0-3.9,0.9-6.7,2.7-8.5s3.7-2.7,5.6-2.7c2.7,0,4.9,1.5,6.6,4.5s2.5,6.6,2.5,10.9
		c0,6.9-2.4,12.7-7.3,17.4s-10.3,7.1-16.2,7.1c-2.2,0-4.7-0.3-7.6-1s-5.5-2.1-7.8-4.4s-4.1-4.1-5.5-5.7s-2.2-3-2.7-4.3
		s-0.7-2.2-0.8-2.6s-0.2-0.7-0.2-0.8c0-0.4,0.2-0.6,0.5-0.5c0.3,0,0.5,0.3,0.6,0.7s0.1,0.8,0.1,1.1c1.8,2.6,3.3,4.5,4.5,5.7
		s3,2.5,5.2,3.9s4.2,2.4,6,2.8s3.5,0.7,5.2,0.7C1928.9,88.6,1929.8,88.5,1930.7,88.4z M1943.9,59.5c-0.9,0-1.5,0.6-1.8,1.8
		c-0.2,1.4-0.3,2.3-0.4,2.6c-0.1,0.6,0.2,1.3,0.9,2s1.3,1.1,1.9,1c1.2-0.2,2-0.4,2.4-0.8s0.6-0.9,0.6-1.5c0-0.4-0.1-0.8-0.1-0.9
		c0-0.7-0.3-1.6-1-2.7S1944.9,59.3,1943.9,59.5z"/>
	<path class="st1" d="M1979.9,69.9c1.2-0.9,2.1-2.5,2.9-4.7s1.3-4.6,1.7-7s0.5-4.6,0.5-6.5c0-3.2-0.5-6.1-1.4-8.6
		c-0.3,0-0.9-0.2-1.6-0.6s-1.2-1.2-1.2-2.5c0-0.9,0.2-1.7,0.7-2.6s1-1.5,1.6-1.9s1.2-0.6,1.7-0.6c1.2,0,2.2,0.8,2.9,2.4
		s1.1,3.6,1.1,5.9s-0.1,5.5-0.4,9.4s-0.7,7.5-1.3,10.5c-0.2,1.4,0.2,2.3,1.3,2.7s2.1,0.6,3.3,0.7v5.6h-5.4c-0.8,0-1.5,0.1-1.9,0.3
		c-0.4,0.3-1,0.6-1.6,1s-1.7,0.8-3.1,1.3s-2.7,1-4,1.4c0,0.5-0.4,1.5-1.2,2.9s-1.6,2.4-2.5,3.1s-1.4,1-1.7,1.1s-0.5,0-0.5-0.2
		c0-0.3,0.4-1.1,1.2-2.4s1.2-2.5,1.3-3.4c-2.2-0.2-4.4-0.7-6.5-1.4s-3.6-1.8-4.4-3.1s-1.4-2.8-1.9-4.4s-0.8-3.1-0.8-4.6
		c0-0.5,0-0.8,0.1-1.1c0.2,0.5,0.5,0.9,0.7,1.4c0.1,0.4,0.3,1.1,0.6,1.9c1.4,2,2.9,3.5,4.5,4.6s3.5,1.7,5.9,1.7
		c0.6,0,1.3-0.1,1.9-0.2c0-1.2-0.1-2.4-0.4-3.8s-0.9-3.9-1.9-7.5l-2.9-11c-0.4-1.2-1.1-2-2.1-2.5s-1.5-0.9-1.6-1.3s-0.2-0.9-0.2-1.5
		c0-1.5,0.5-2.9,1.4-4.1s2-2,3.1-2.2c1.1-0.2,1.9,0.1,2.4,1s0.8,1.6,0.8,2.2c0,0.2-0.1,0.7-0.2,1.6s-0.2,1.7-0.2,2.5
		c0,0.4,0,0.8,0,1s0.1,1.1,0.4,2.5s0.8,3.6,1.6,6.6s1.6,5.9,2.3,8.8s1.3,5.1,1.6,6.8c0.5-0.1,1.1-0.2,1.7-0.3
		S1979.4,70.4,1979.9,69.9z"/>
	<path class="st1" d="M1989.3,66.3l2.3,0.1c2.4,0,4.7-0.1,6.9-0.2s4.3-0.3,6.4-0.5c0-2.1-0.8-3.5-2.5-4.3c-1.3-0.5-2.6-1.1-4-1.7
		c-0.4,0.4-0.9,0.8-1.5,1.3s-1.2,0.8-1.9,0.8c-1.5,0-2.4-0.4-2.9-1.3s-0.7-1.9-0.7-3c0-1.7,0.6-2.9,1.8-3.7s2.7-1.1,4.4-1.1
		c3.3,0,6.1,1.6,8.4,4.7s4.1,5.2,5.3,6.2s2.8,1.6,4.7,2s3.8,0.6,5.6,0.7v5.8h-1.9c-0.3,0-1.5-0.1-3.7-0.3s-4.3-0.3-6.2-0.3
		c-5.6,0-9.6,0.1-12,0.2s-4.5,0.2-6.4,0.2l-2.1,0.1V66.3z M2002.9,79.5c0-0.7,0.3-1.3,0.9-1.9s1.4-0.9,2.4-0.9
		c1.1,0,1.9,0.3,2.3,0.8s0.6,1.2,0.6,2.1c0,1.2-0.4,2-1.2,2.6s-1.7,0.8-2.6,0.8c-0.6-0.2-1.1-0.5-1.6-0.9S2002.9,80.7,2002.9,79.5z"
		/>
	<path class="st1" d="M2038.6,72.1h-5.9c-0.4,0.1-0.6,0.2-0.9,0.2c-0.4,0-1-0.4-1.6-1.3s-1.2-1.6-1.7-2c-0.6,1.1-1,1.9-1.3,2.4
		s-0.8,0.8-1.5,0.8h-5.5v-5.8h2.9c3.1,0,4.9-0.9,5.3-2.6s1.2-2.6,2.4-2.6c0.2,0,0.8,0.9,1.9,2.6s2.5,2.6,4.1,2.6h1.9V72.1z
		 M2022.4,49.1c0-0.7,0.3-1.3,0.9-2s1.4-0.9,2.4-0.9c1,0,1.8,0.2,2.2,0.7s0.7,1.2,0.7,2.2c0,0.8-0.3,1.6-0.9,2.3s-1.4,1-2.5,1
		c-0.6,0-1.2-0.4-1.9-1.1S2022.4,49.9,2022.4,49.1z M2030.3,49.1c0-0.7,0.3-1.3,0.9-2s1.4-0.9,2.4-0.9c1.1,0,1.9,0.3,2.3,0.8
		s0.6,1.2,0.6,2.1c0,1.2-0.4,2-1.2,2.5s-1.7,0.8-2.7,0.8c-0.5-0.2-1.1-0.5-1.6-0.9S2030.3,50.3,2030.3,49.1z"/>
	<path class="st1" d="M2037.5,66.3h6.3c0-1.8,0.3-3.4,1-4.6s2.2-1.8,4.5-1.8c1.6,0,3.2,0.9,4.8,2.8s2.4,4.5,2.4,7.8
		c0,2.1-0.5,3.6-1.5,4.5s-2.2,1.2-3.7,1.2c-1.3,0-2.5-0.4-3.4-1.3c-0.8-1-1.7-1.9-2.5-2.8h-8V66.3z M2048.8,69.4
		c0.5,1,1.1,1.5,1.8,1.5c0.2,0,0.5-0.1,0.9-0.2s0.6-0.6,0.6-1.4c0-0.4-0.1-1-0.3-1.6s-0.5-1.2-1-1.6s-1-0.6-1.6-0.4
		c-0.3,0.1-0.6,0.3-0.7,0.6s-0.2,0.6-0.2,1c0,0.4,0,0.8,0.1,1.1S2048.6,69,2048.8,69.4z"/>
	<path class="st1" d="M2076.5,72.1c-0.3-0.1-0.6-0.1-0.9-0.1s-1.1,0-2.2,0c-0.9,0-1.5,0.1-1.9,0.3s-1.1,1-2.1,2.4s-2.5,2.4-4.4,3.1
		l-0.3-0.9c0.4-0.8,1.1-1.8,2.2-3.2c0.8-1.6,1.2-4,1.2-7.3l-3.2-18c-0.7-1.2-1.4-2.4-2.1-3.7s-1.1-2.6-1.1-3.9c0-2,0.6-3.5,1.7-4.5
		s2.2-1.5,3.2-1.5c0.8,0,1.4,0.4,1.9,1.2s0.7,1.8,0.7,2.9c0,0.8-0.2,2.1-0.5,3.9s-0.4,3-0.4,3.4c0.5,3.5,1.1,6.8,1.7,9.8
		s1.2,5.4,1.6,7s0.7,2.8,0.9,3.5h4.1V72.1z"/>
	<path class="st1" d="M2089.5,70.7c-1-0.9-1.6-1.4-1.8-1.4c-0.3,0-0.9,0.5-1.8,1.4s-1.6,1.4-1.8,1.4h-9.2v-5.8h5.9
		c0.8-0.1,1.4-0.2,1.7-0.5s0.8-0.5,1.4-0.8c-1.2-0.1-2.4-0.3-3.6-0.4c-1.8-0.4-2.6-1.1-2.6-2.3c0-1.3,0.5-2.2,1.5-2.9
		s2.3-1.3,3.8-2.1c0.7-0.5,1.5-1.3,2.5-2.6s1.9-1.9,2.7-1.9c1,0,2,0.6,3,1.9s1.8,2.1,2.4,2.6c1.1,0.6,2.1,1.2,3.2,1.8
		c1.2,0.8,1.7,1.9,1.7,3.2c0,1.3-0.6,2-1.9,2.3s-2.7,0.4-4.1,0.5c0.4,0.3,0.7,0.5,1.1,0.7s1.1,0.4,2.1,0.5h5.8v5.8h-10.1
		C2091.1,72.1,2090.4,71.7,2089.5,70.7z M2087.3,58.6c-0.2,0.7-0.5,1.2-1,1.3s-1.1,0.3-1.9,0.6s-1.2,0.5-1.2,0.8
		c0,0.3,0.5,0.6,1.4,0.7s2,0.3,3.3,0.4c0.6,0,1.6-0.1,2.9-0.4s1.9-0.5,1.9-0.9c0-0.2-0.3-0.4-0.8-0.6s-1.1-0.5-1.8-0.6
		s-1.1-0.6-1.3-1.3s-0.5-1.1-0.7-1.1C2087.7,57.5,2087.4,57.9,2087.3,58.6z"/>
	<path class="st1" d="M2099.6,66.3h4c1.6,0,2.5,0,2.7,0s1.1,0.3,2.8,0.7c0.1-0.2,0.1-0.3,0.2-0.5s0.1-0.4,0.1-0.7
		c0-0.4-0.1-0.8-0.2-1s-0.3-0.4-0.4-0.6s-0.6-0.3-1.6-0.3c-0.8,0-1.5-0.3-2.1-1s-0.8-1.4-0.8-2.2c0-0.9,0.4-1.7,1.1-2.6
		s1.8-1.3,3.1-1.3c1,0,2.1,0.9,3.3,2.6s1.8,4,1.8,6.6c0,1.9-0.3,3.5-1,5s-1.5,2.1-2.5,2.1c-0.5-0.2-1.2-0.4-2.1-0.7
		s-2.6-0.4-5.2-0.4h-3.3V66.3z M2101.8,81.2c0-0.7,0.3-1.3,0.9-2s1.4-0.9,2.4-0.9c1,0,1.8,0.2,2.2,0.7s0.7,1.2,0.7,2.2
		c0,0.8-0.3,1.6-0.9,2.3s-1.4,1-2.5,1c-0.6,0-1.2-0.4-1.9-1.1S2101.8,82,2101.8,81.2z M2109.2,80.5c0-0.7,0.3-1.3,0.9-1.9
		s1.4-0.9,2.4-0.9c1.1,0,1.9,0.3,2.3,0.8s0.6,1.2,0.6,2.1c0,1.2-0.4,2-1.2,2.6s-1.7,0.8-2.6,0.8c-0.6-0.2-1.1-0.5-1.6-0.9
		S2109.2,81.7,2109.2,80.5z"/>
	<path class="st1" d="M2116.9,42.8c0-0.7,0.3-1.3,0.9-2s1.4-0.9,2.4-0.9c1,0,1.8,0.2,2.2,0.7s0.7,1.2,0.7,2.2c0,0.8-0.3,1.6-0.9,2.3
		s-1.4,1-2.5,1c-0.6,0-1.2-0.4-1.9-1.1S2116.9,43.7,2116.9,42.8z M2121.8,65.1c0-3.1,1.3-5.7,3.9-7.9s5.6-3.2,9.1-3.2
		c0.2,0,0.5,0,0.9,0.1s0.6,0.1,0.7,0.1c0-1.7-0.6-3.2-1.8-4.7s-1.8-2.5-1.8-3c0-1.2,0.4-2.3,1.1-3.1s1.7-1.2,2.9-1.2
		c1.5,0,2.6,0.3,3.2,1s0.9,1.5,0.9,2.5c0,0.5-0.1,1-0.2,1.4s-0.2,0.8-0.3,1c0.6,1.7,1.1,3.7,1.6,5.9s0.8,4.7,0.8,7.3
		c0,3.2-0.6,6.2-1.7,9.1s-3,5.1-5.6,6.7c0-0.2-0.1-0.5-0.1-0.9c0-0.6,0.2-1.5,0.7-2.7s0.7-2.1,0.8-2.8c-1.2,0.5-2.4,1-3.6,1.5
		s-2.4,0.7-3.7,0.7c-2.7,0-4.7-0.7-5.9-2.1S2121.8,67.5,2121.8,65.1z M2125.9,41.9c0-0.7,0.3-1.3,0.9-1.9s1.4-0.9,2.4-0.9
		c1.1,0,1.9,0.3,2.3,0.8s0.6,1.2,0.6,2.1c0,1.2-0.4,2-1.2,2.5s-1.7,0.8-2.6,0.8c-0.6-0.2-1.1-0.5-1.6-0.9S2125.9,43.1,2125.9,41.9z
		 M2128.1,65.7c0.2,0.8,0.6,1.3,1.2,1.7s1.4,0.6,2.3,0.6c1,0,2-0.2,3.1-0.7s1.8-1,2.3-1.7s0.8-1.3,0.9-1.9s0.2-1.4,0.2-2.2
		c-0.1-1.4-0.4-2.3-0.8-2.7s-0.9-0.5-1.4-0.5c-1,0-2.2,0.4-3.6,1.1s-2.4,1.5-2.9,2.4s-0.9,1.6-1.1,2.2S2128,65.1,2128.1,65.7z"/>
</g>
<rect x="4" y="112.2" class="st2" width="975.1" height="38"/>
<g>
	<rect x="5" y="11" class="st2" width="975.1" height="71"/>
	<path class="st4" d="M177.5,67.4c-0.3-0.1-0.7-0.2-1.2-0.2c-0.4,0-1.4,0-2.8,0c-1.1,0-1.9,0.1-2.4,0.4c-0.5,0.2-1.4,1.2-2.7,3
		s-3.1,3-5.5,3.8l-0.4-1.1c0.5-1,1.4-2.3,2.7-4c1-2,1.5-5,1.5-9.1l-4-22.6c-0.9-1.4-1.7-3-2.7-4.7c-0.9-1.7-1.4-3.3-1.4-4.9
		c0-2.5,0.7-4.4,2.1-5.7c1.4-1.3,2.8-1.9,4-1.9c1,0,1.8,0.5,2.4,1.5c0.6,1,0.9,2.2,0.9,3.7c0,1-0.2,2.6-0.6,4.9
		c-0.4,2.3-0.6,3.7-0.5,4.3c0.6,4.4,1.4,8.5,2.2,12.3s1.5,6.7,2,8.7c0.5,2,0.9,3.5,1.2,4.4h5.2V67.4z"/>
	<path class="st4" d="M198.4,67.4h-7.4c-0.4,0.1-0.8,0.2-1.1,0.2c-0.6,0-1.2-0.6-2-1.7c-0.8-1.1-1.5-2-2.1-2.5
		c-0.7,1.3-1.3,2.3-1.7,3c-0.4,0.7-1,1-1.9,1h-6.9v-7.2h3.6c3.9,0,6.1-1.1,6.6-3.3c0.5-2.2,1.5-3.3,2.9-3.3c0.2,0,1,1.1,2.4,3.3
		c1.4,2.2,3.1,3.3,5.1,3.3h2.4V67.4z M178.1,77.5c0-0.9,0.4-1.7,1.2-2.4c0.8-0.8,1.8-1.2,3-1.2c1.3,0,2.2,0.3,2.8,0.9
		c0.5,0.6,0.8,1.5,0.8,2.7c0,1-0.4,2-1.1,2.9c-0.7,0.9-1.8,1.3-3.1,1.3c-0.7,0-1.5-0.5-2.3-1.4C178.5,79.5,178.1,78.5,178.1,77.5z
		 M188.2,77.3c0-0.9,0.4-1.7,1.2-2.4c0.8-0.8,1.8-1.2,3-1.2c1.4,0,2.4,0.3,2.9,1c0.5,0.7,0.8,1.5,0.8,2.6c0,1.4-0.5,2.5-1.5,3.2
		c-1,0.7-2.1,1-3.3,1c-0.7-0.3-1.4-0.7-2-1.2C188.5,79.8,188.2,78.8,188.2,77.3z"/>
	<path class="st4" d="M196.5,60.2c0.9,0,1.8,0,2.7,0c0.9,0,2.1,0,3.4,0c3,0,6.1-0.1,9.4-0.3c3.2-0.2,6.1-0.4,8.5-0.6
		c0-2.6-1-4.4-3.1-5.4c-1.7-0.7-3.3-1.4-4.9-2.1c-0.9,0.8-1.7,1.4-2.3,1.9c-0.7,0.5-1.3,0.8-2,0.8c-1.8,0-2.9-0.6-3.5-1.7
		c-0.6-1.1-0.9-2.4-0.9-3.7c0-2.1,0.8-3.6,2.3-4.6c1.5-1,3.4-1.4,5.5-1.4c4.1,0,7.5,1.9,10.3,5.8c2.8,3.9,4.9,6.3,6.2,7.4
		c1.3,1,2.5,1.7,3.5,1.9c1.1,0.2,2.3,0.4,3.7,0.4h1.9c1.9,0,3.3,0.3,4.2,1c0.9,0.6,1.4,2.1,1.4,4.4c0,1.6-0.3,2.8-0.9,3.7
		c-0.6,0.9-1.6,1.3-2.9,1.3c-0.3,0-1.8-0.4-4.7-1.1c-2.8-0.7-5.3-1.1-7.5-1.1c-7.2,0-12.7,0.1-16.6,0.3c-3.9,0.2-7,0.3-9.3,0.3
		l-4.2,0.1V60.2z M219.9,76.3c0-0.9,0.4-1.7,1.2-2.4c0.8-0.8,1.8-1.2,3-1.2c2.4,0,3.6,1.2,3.6,3.6c0,1-0.4,2-1.1,2.9
		c-0.7,0.9-1.8,1.4-3.1,1.4c-0.7,0-1.5-0.5-2.3-1.4C220.4,78.2,219.9,77.3,219.9,76.3z"/>
	<path class="st4" d="M273.1,67.4h-3.8c-2.3,5-4.5,9-6.6,12.1c-2.1,3.1-4.8,5.6-8.1,7.5s-7.4,2.9-12.5,2.9c-2.1,0-3.8-0.3-5-0.8
		c-1.2-0.5-2.6-1.6-4.2-3.1s-2.9-3.3-3.8-5.3c-0.9-2-1.7-5.6-2.3-10.7l0.3-2.4c0.6,0.3,1.2,1.2,1.7,2.8c0.5,1.6,1.3,3.8,2.3,6.7
		c1.9,4.2,3.9,6.5,6.2,7c2.3,0.5,4.2,0.8,5.7,0.9c1.5,0,2.6,0.1,3.3,0.1c3.6,0,7.2-2,10.7-6c3.5-4,5.3-7.9,5.3-11.8
		c-3.9,0-6.6-0.8-8.2-2.4c-1.6-1.6-2.4-3.7-2.4-6.4c0-1.9,0.8-4.5,2.4-7.8c1.6-3.3,3.6-5,6.1-5c3.4,0,6,2.3,7.7,7
		c1.1,4.8,1.7,7.3,1.7,7.5h3.6V67.4z M258.8,55.9c-0.4,0.4-0.7,0.9-0.7,1.5c0,0.7,0.3,1.3,1,2c0.6,0.6,1.5,0.9,2.5,0.9
		c0.4,0,0.8,0,1.1-0.1c0.3-0.1,0.5-0.4,0.5-1.1c0-1.4-0.4-2.3-1.1-2.8c-0.7-0.5-1.4-0.8-2-0.8C259.6,55.5,259.2,55.6,258.8,55.9z"/>
	<path class="st4" d="M287.7,53.7c0,3.8-0.5,7.6-1.5,11.3c-1,3.7-3,5.6-5.8,5.6c-0.4,0-1.1-0.5-2.1-1.6c-1-1.1-1.8-1.6-2.5-1.6h-4.8
		v-7.2h6.6c0.6,0,1.3,0.2,1.8,0.6c0.6,0.4,1.1,0.7,1.4,0.9c0.1-2,0.3-4.2,0.4-6.6c0.1-2.4,0.2-4.7,0.2-6.8c0-2.5-0.2-4.7-0.7-6.7
		c-0.5-1.9-0.8-3.4-1-4.5c-0.2-1-1.1-2.8-2.5-5.2c-1.5-2.4-2.2-4.6-2.2-6.4c0-1.8,0.7-3.3,2-4.6c1.3-1.3,2.7-1.9,4.1-1.9
		c0.9,0,1.8,0.6,2.7,1.9c0.9,1.3,1.3,2.7,1.3,4.2c0,0.5-0.1,1.3-0.2,2.2c-0.1,0.9-0.2,1.6-0.1,1.9c0,2.5,0.3,5.3,0.8,8.4
		c0.5,3.1,0.9,5.2,1.1,6.3c0.2,1.1,0.4,2.6,0.6,4.5C287.6,50.3,287.7,52,287.7,53.7z"/>
	<path class="st4" d="M316.9,67.4h-3.8c-2.3,5-4.5,9-6.6,12.1c-2.1,3.1-4.8,5.6-8.1,7.5s-7.4,2.9-12.5,2.9c-2.1,0-3.8-0.3-5-0.8
		c-1.2-0.5-2.6-1.6-4.2-3.1s-2.9-3.3-3.8-5.3c-0.9-2-1.7-5.6-2.3-10.7l0.3-2.4c0.6,0.3,1.2,1.2,1.7,2.8c0.5,1.6,1.3,3.8,2.3,6.7
		c1.9,4.2,3.9,6.5,6.2,7c2.3,0.5,4.2,0.8,5.7,0.9c1.5,0,2.6,0.1,3.3,0.1c3.6,0,7.2-2,10.7-6c3.5-4,5.3-7.9,5.3-11.8
		c-3.9,0-6.6-0.8-8.2-2.4c-1.6-1.6-2.4-3.7-2.4-6.4c0-1.9,0.8-4.5,2.4-7.8c1.6-3.3,3.6-5,6.1-5c3.4,0,6,2.3,7.7,7
		c1.1,4.8,1.7,7.3,1.7,7.5h3.6V67.4z M302.5,55.9c-0.4,0.4-0.7,0.9-0.7,1.5c0,0.7,0.3,1.3,1,2c0.6,0.6,1.5,0.9,2.5,0.9
		c0.4,0,0.8,0,1.1-0.1c0.3-0.1,0.5-0.4,0.5-1.1c0-1.4-0.4-2.3-1.1-2.8c-0.7-0.5-1.4-0.8-2-0.8C303.4,55.5,302.9,55.6,302.5,55.9z"/>
	<path class="st4" d="M337.9,67.4h-7.4c-0.4,0.1-0.8,0.2-1.1,0.2c-0.6,0-1.2-0.6-2-1.7c-0.8-1.1-1.5-2-2.1-2.5
		c-0.7,1.3-1.3,2.3-1.7,3c-0.4,0.7-1,1-1.9,1h-6.9v-7.2h3.6c3.9,0,6.1-1.1,6.6-3.3c0.5-2.2,1.5-3.3,2.9-3.3c0.2,0,1,1.1,2.4,3.3
		c1.4,2.2,3.1,3.3,5.1,3.3h2.4V67.4z M318.5,40.3c0-0.9,0.4-1.7,1.2-2.5c0.8-0.8,1.8-1.2,3-1.2c2.4,0,3.6,1.2,3.6,3.6
		c0,1-0.4,1.9-1.1,2.8c-0.8,0.9-1.8,1.3-3.1,1.3c-0.7,0-1.5-0.4-2.3-1.3C318.9,42.3,318.5,41.3,318.5,40.3z"/>
	<path class="st4" d="M416.5,67.4h-3.7c-0.6,0.8-1.2,1.3-1.8,1.6c-0.6,0.3-1.3,0.4-2.1,0.4c-1.1,0-2.1-0.2-2.9-0.6s-1.4-0.9-1.9-1.4
		h-68.2v-7.2H402h4.4c0-2.2-0.5-3.9-1.4-5c-1-1.1-2-1.6-3-1.6h-49.7c-3.6,0-6.7-0.6-9.3-1.9c-2.6-1.3-3.9-3.4-3.9-6.4
		c0-3.7,2.4-7.6,7.2-11.8c4.8-4.2,9.7-6.2,14.8-6.2c2.5,0,4.3,0.4,5.5,1.3c1.2,0.9,1.8,2.4,1.8,4.7c0,1.4-0.2,2.3-0.7,2.8
		c-0.5,0.5-1.4,0.8-3,0.8c-1.6,0-2.9-0.5-3.8-1.4c-0.9-0.9-1.8-1.4-2.6-1.4c-1.1,0-3.4,1.3-6.8,4c-3.5,2.7-5.2,5.1-5.2,7.1
		c0,1,0.9,1.7,2.7,2c1.8,0.3,5.5,0.4,10.9,0.4h12.8h30.4c3.5,0,6.2,1.4,8,4.1c1.8,2.7,2.7,5.6,2.7,8.5h2.5V67.4z"/>
	<path class="st4" d="M438.6,67.4h-7.4c-0.4,0.1-0.8,0.2-1.1,0.2c-0.6,0-1.2-0.6-2-1.7c-0.8-1.1-1.5-2-2.1-2.5
		c-0.7,1.3-1.3,2.3-1.7,3c-0.4,0.7-1,1-1.9,1h-6.9v-7.2h3.6c3.9,0,6.1-1.1,6.6-3.3c0.5-2.2,1.5-3.3,2.9-3.3c0.2,0,1,1.1,2.4,3.3
		c1.4,2.2,3.1,3.3,5.1,3.3h2.4V67.4z M418.4,38.6c0-0.9,0.4-1.7,1.2-2.5c0.8-0.8,1.8-1.2,3-1.2c1.3,0,2.2,0.3,2.8,0.9
		c0.5,0.6,0.8,1.5,0.8,2.7c0,1-0.4,2-1.1,2.9c-0.7,0.9-1.8,1.3-3.1,1.3c-0.7,0-1.5-0.4-2.3-1.3C418.8,40.6,418.4,39.6,418.4,38.6z
		 M428.2,38.6c0-0.9,0.4-1.7,1.2-2.5c0.8-0.8,1.8-1.2,3-1.2c1.4,0,2.4,0.3,2.9,1c0.5,0.7,0.7,1.6,0.7,2.6c0,1.4-0.5,2.5-1.5,3.2
		c-1,0.7-2.1,1-3.3,1c-0.7-0.2-1.4-0.6-2-1.2S428.2,40.1,428.2,38.6z"/>
	<path class="st4" d="M437.2,60.2h7.8c0.8-0.2,1.6-0.5,2.4-0.8c0.8-0.3,1.2-0.8,1.2-1.4c-0.6-4.6-1.1-9-1.6-13.3
		c-0.5-4.3-0.9-7.3-1.2-9.1s-1.2-3.6-2.6-5.4c-1.4-1.9-2.1-3.9-2.1-6.2c0-1.8,0.7-3.3,2-4.6c1.3-1.3,2.7-1.9,4.2-1.9
		c1,0,1.8,0.6,2.7,1.9c0.8,1.3,1.2,2.7,1.2,4.2c0,0.4,0,1.1-0.1,2.2c-0.1,1.1-0.1,1.8-0.1,2c0,2.4,0.3,5.2,0.9,8.3
		c0.6,3.1,1.1,5.7,1.4,7.8c0.3,2.1,0.5,5.2,0.7,9.4c0.2,4.2,0.4,6.4,0.6,6.7c0.2,0,0.5,0.1,1.1,0.1c0.5,0,1.1,0,1.7,0
		c0.8,0,1.3,0,1.5,0c0.2,0,0.5,0,0.8,0v7.2h-6.6c-0.4,1.5-1.4,3.2-2.8,5s-2.9,3-4.5,3.6c0-1,0.3-2.2,0.9-3.9c0.6-1.6,1-3.2,1.2-4.7
		h-10.5V60.2z"/>
	<path class="st4" d="M473.9,53.7c0,3.8-0.5,7.6-1.5,11.3c-1,3.7-3,5.6-5.8,5.6c-0.4,0-1.1-0.5-2.1-1.6c-1-1.1-1.8-1.6-2.5-1.6h-4.8
		v-7.2h6.6c0.6,0,1.3,0.2,1.8,0.6c0.6,0.4,1.1,0.7,1.4,0.9c0.1-2,0.3-4.2,0.4-6.6c0.1-2.4,0.2-4.7,0.2-6.8c0-2.5-0.2-4.7-0.7-6.7
		c-0.5-1.9-0.8-3.4-1-4.5c-0.2-1-1.1-2.8-2.5-5.2c-1.5-2.4-2.2-4.6-2.2-6.4c0-1.8,0.7-3.3,2-4.6c1.3-1.3,2.7-1.9,4.1-1.9
		c0.9,0,1.8,0.6,2.7,1.9c0.9,1.3,1.3,2.7,1.3,4.2c0,0.5-0.1,1.3-0.2,2.2c-0.1,0.9-0.2,1.6-0.1,1.9c0,2.5,0.3,5.3,0.8,8.4
		c0.5,3.1,0.9,5.2,1.1,6.3c0.2,1.1,0.4,2.6,0.6,4.5C473.8,50.3,473.9,52,473.9,53.7z"/>
	<path class="st4" d="M514.7,67.4c-0.3-0.1-0.7-0.2-1.2-0.2c-0.4,0-1.4,0-2.8,0c-1.1,0-1.9,0.1-2.4,0.4c-0.5,0.2-1.4,1.2-2.7,3
		s-3.1,3-5.5,3.8l-0.4-1.1c0.5-1,1.4-2.3,2.7-4c1-2,1.5-5,1.5-9.1l-4-22.6c-0.9-1.4-1.7-3-2.7-4.7c-0.9-1.7-1.4-3.3-1.4-4.9
		c0-2.5,0.7-4.4,2.1-5.7c1.4-1.3,2.8-1.9,4-1.9c1,0,1.8,0.5,2.4,1.5c0.6,1,0.9,2.2,0.9,3.7c0,1-0.2,2.6-0.6,4.9
		c-0.4,2.3-0.6,3.7-0.5,4.3c0.6,4.4,1.4,8.5,2.2,12.3s1.5,6.7,2,8.7c0.5,2,0.9,3.5,1.2,4.4h5.2V67.4z"/>
	<path class="st4" d="M535.7,67.4h-7.4c-0.4,0.1-0.8,0.2-1.1,0.2c-0.6,0-1.2-0.6-2-1.7c-0.8-1.1-1.5-2-2.1-2.5
		c-0.7,1.3-1.3,2.3-1.7,3s-1,1-1.9,1h-6.9v-7.2h3.6c3.9,0,6.1-1.1,6.6-3.3c0.5-2.2,1.5-3.3,2.9-3.3c0.2,0,1,1.1,2.4,3.3
		c1.4,2.2,3.1,3.3,5.1,3.3h2.4V67.4z M515.4,77.5c0-0.9,0.4-1.7,1.2-2.4c0.8-0.8,1.8-1.2,3-1.2c1.3,0,2.2,0.3,2.8,0.9
		c0.5,0.6,0.8,1.5,0.8,2.7c0,1-0.4,2-1.1,2.9c-0.7,0.9-1.8,1.3-3.1,1.3c-0.7,0-1.5-0.5-2.3-1.4C515.8,79.5,515.4,78.5,515.4,77.5z
		 M525.5,77.3c0-0.9,0.4-1.7,1.2-2.4c0.8-0.8,1.8-1.2,3-1.2c1.4,0,2.4,0.3,2.9,1c0.5,0.7,0.8,1.5,0.8,2.6c0,1.4-0.5,2.5-1.5,3.2
		c-1,0.7-2.1,1-3.3,1c-0.7-0.3-1.4-0.7-2-1.2C525.8,79.8,525.5,78.8,525.5,77.3z"/>
	<path class="st4" d="M533.8,60.2h7.8c0.8-0.2,1.6-0.5,2.4-0.8c0.8-0.3,1.2-0.8,1.2-1.4c-0.6-4.6-1.1-9-1.6-13.3
		c-0.5-4.3-0.9-7.3-1.2-9.1s-1.2-3.6-2.6-5.4c-1.4-1.9-2.1-3.9-2.1-6.2c0-1.8,0.7-3.3,2-4.6c1.3-1.3,2.7-1.9,4.2-1.9
		c1,0,1.8,0.6,2.7,1.9c0.8,1.3,1.2,2.7,1.2,4.2c0,0.4,0,1.1-0.1,2.2s-0.1,1.8-0.1,2c0,2.4,0.3,5.2,0.9,8.3c0.6,3.1,1.1,5.7,1.4,7.8
		c0.3,2.1,0.5,5.2,0.7,9.4s0.4,6.4,0.6,6.7c0.2,0,0.5,0.1,1.1,0.1c0.5,0,1.1,0,1.7,0c0.8,0,1.3,0,1.5,0c0.2,0,0.5,0,0.8,0v7.2h-6.6
		c-0.4,1.5-1.4,3.2-2.8,5s-2.9,3-4.5,3.6c0-1,0.3-2.2,0.9-3.9c0.6-1.6,1-3.2,1.2-4.7h-10.5V60.2z"/>
	<path class="st4" d="M572.3,65.7c-1.2-1.1-2-1.7-2.3-1.7c-0.3,0-1.1,0.6-2.3,1.7c-1.2,1.1-1.9,1.7-2.2,1.7h-11.5v-7.2h7.3
		c1-0.1,1.7-0.3,2.2-0.6s1-0.6,1.7-1c-1.5-0.1-3-0.3-4.5-0.5c-2.2-0.4-3.3-1.4-3.3-2.9c0-1.6,0.6-2.8,1.9-3.6s2.8-1.7,4.7-2.6
		c0.9-0.6,1.9-1.7,3.2-3.2c1.3-1.6,2.4-2.4,3.3-2.4c1.3,0,2.6,0.8,3.8,2.4s2.2,2.7,3,3.2c1.3,0.8,2.6,1.5,4,2.3c1.4,1,2.2,2.3,2.2,4
		c0,1.6-0.8,2.5-2.4,2.8c-1.6,0.3-3.3,0.5-5.1,0.6c0.5,0.3,0.9,0.6,1.4,0.9c0.5,0.3,1.4,0.5,2.7,0.7h7.2v7.2h-12.6
		C574.3,67.4,573.5,66.8,572.3,65.7z M569.5,50.6c-0.2,0.9-0.6,1.5-1.2,1.6c-0.6,0.1-1.4,0.4-2.4,0.8c-1,0.4-1.5,0.7-1.5,1
		c0,0.4,0.6,0.7,1.8,0.9c1.2,0.2,2.6,0.4,4.1,0.5c0.8,0,2-0.1,3.6-0.4c1.6-0.3,2.4-0.7,2.4-1.1c0-0.2-0.3-0.5-1-0.8
		c-0.7-0.3-1.4-0.6-2.2-0.8c-0.8-0.2-1.3-0.7-1.6-1.6c-0.3-0.9-0.6-1.4-0.9-1.4C570,49.2,569.7,49.6,569.5,50.6z"/>
	<path class="st4" d="M601.5,53.7c0,3.8-0.5,7.6-1.5,11.3c-1,3.7-3,5.6-5.8,5.6c-0.4,0-1.1-0.5-2.1-1.6c-1-1.1-1.8-1.6-2.5-1.6h-4.8
		v-7.2h6.6c0.6,0,1.3,0.2,1.8,0.6c0.6,0.4,1.1,0.7,1.4,0.9c0.1-2,0.3-4.2,0.4-6.6s0.2-4.7,0.2-6.8c0-2.5-0.2-4.7-0.7-6.7
		c-0.5-1.9-0.8-3.4-1-4.5c-0.2-1-1.1-2.8-2.5-5.2c-1.5-2.4-2.2-4.6-2.2-6.4c0-1.8,0.7-3.3,2-4.6c1.3-1.3,2.7-1.9,4.1-1.9
		c0.9,0,1.8,0.6,2.7,1.9c0.9,1.3,1.3,2.7,1.3,4.2c0,0.5-0.1,1.3-0.2,2.2c-0.1,0.9-0.2,1.6-0.1,1.9c0,2.5,0.3,5.3,0.8,8.4
		c0.5,3.1,0.9,5.2,1.1,6.3c0.2,1.1,0.4,2.6,0.6,4.5C601.4,50.3,601.5,52,601.5,53.7z"/>
	<path class="st4" d="M608.2,32.4c-0.2-1.3-0.6-2.3-1.2-2.9c-0.6-0.7-1.2-1.4-1.8-2.2c-0.2-2.2,0.4-4.2,2.1-6
		c1.6-1.8,3.3-2.7,5.1-2.7c1.3,0,2.2,0.6,2.7,1.7c0.5,1.1,0.7,2.1,0.6,2.9c-0.3,1.2-0.7,2.5-1.1,3.8c-0.4,1.3-0.6,2.8-0.6,4.4
		c0,3.2,0.3,7.4,1,12.5c0.7,5.1,1,8.9,1,11.5c0,2.1-1.2,5.1-3.7,9c-2.4,3.9-5.7,6.5-9.7,7.6c2.2-2.7,3.7-4.8,4.6-6.4
		s1.5-3.2,1.8-4.7s0.6-2.8,0.7-3.9c0.1-1.1,0.1-2.1,0.1-3.1c0-0.9,0-2.1-0.1-3.4s-0.2-2.7-0.3-3.8L608.2,32.4z"/>
	<path class="st4" d="M636.1,26.5c0-1.5,0.4-2.5,1.2-2.9c0.8-0.4,1.8-0.7,2.9-0.7c1.2,0,2.1,0.2,2.6,0.5s1,1.2,1.6,2.4
		c0.6-1.5,1.3-2.6,2-3.2c0.7-0.6,1.8-0.9,3.4-0.9c1,0,1.9,0.5,2.6,1.5s1.1,1.9,1.1,2.6c0,1-0.5,1.9-1.5,2.6c-1,0.7-2.1,1-3.4,1
		c-1.1,0-1.9-0.3-2.4-0.8c-0.5-0.7-0.9-1.2-1.2-1.6c-1.4,1.8-2.4,2.8-3.1,3.1c-0.7,0.3-1.4,0.5-2.3,0.5c-0.9,0-1.7-0.4-2.5-1.1
		C636.5,28.8,636.1,27.8,636.1,26.5z M666.1,67.4l1.3,0.1c-0.2,0-0.6,0-1.2,0c-0.5,0-1.3,0-2.1,0c-2.5,0-4.5,0.8-6,2.4
		s-3.9,2.4-7.2,2.4c0.2-0.6,0.8-1.4,1.8-2.5s1.7-1.8,1.9-2.3c-0.4,0-0.8-0.1-1.3-0.1c-0.5,0-0.8,0-1.1,0c-1.9,0-3,0-3.4,0
		c-0.4,0-0.8,0.1-1.1,0.2c-2-0.3-3.9-1-5.8-2.2c-1.9-1.1-2.9-3.9-2.9-8.3c0-4.1,1.6-7,4.7-8.8c3.7-1,7.3-2,11-3
		c0.2-0.5,0.2-1.2,0-2.1c-0.2-1-0.5-1.7-0.8-2.3s-1-1.3-2.3-2.1c-1.3-0.8-1.9-1.6-1.9-2.3c0-1.9,0.5-3.1,1.5-3.6
		c1-0.5,2.3-0.8,3.8-0.8c1.7,0,3.2,0.7,4.3,2.2c1.2,1.5,1.7,3.4,1.7,5.8c0,1.6,0,3.1-0.1,4.7c0,1.6-0.1,3.2-0.1,4.9
		c0,1.6,0,3.3,0,4.9c0.1,2.5,0.3,4.4,0.6,5.7h4.3V67.4z M646.5,58.2c0,0.7,0.4,1.2,1.2,1.4c0.8,0.2,1.7,0.4,2.9,0.4
		c1.1,0,1.9-0.1,2.2-0.1c2.1,0,3.2-0.8,3.2-2.4l-0.1-1.3l-0.4-3.5c0-0.9-0.5-1.4-1.6-1.4c-0.9,0-2,0.3-3.2,0.8
		c-1.2,0.5-2.1,1-2.7,1.5c-0.5,0.5-0.9,1.1-1.2,1.9S646.5,57.3,646.5,58.2z"/>
	<path class="st4" d="M688.1,68.1c-0.5,0.1-1.2-0.5-2.1-1.6s-1.6-2-2-2.3c-0.3,0.2-0.9,0.8-1.8,1.7c-0.9,0.9-1.9,1.6-3.1,2.1
		c0,0-0.7-0.6-1.9-1.9c-1.2-1.3-2.1-1.9-2.5-1.9c-0.6,0-1.2,0.5-1.9,1.6c-0.7,1-1.3,1.6-1.6,1.7h-7.3v-7.2h1.9
		c3.7,0,5.9-1.1,6.6-3.3c0.8-2.2,1.8-3.2,3-3c0.5,0.1,1.1,0.9,1.9,2.5c0.8,1.6,1.5,2.8,2.2,3.7c0.4-0.3,1-1.4,1.9-3.1
		c0.9-1.7,1.7-2.5,2.3-2.5c1,1.9,2,3.4,2.9,4.7c1,1.3,2,1.8,3.1,1.5c0.5-0.1,0.8-0.5,0.9-1.2c0.1-0.7,0.2-1.2,0.2-1.5
		c0-0.3,0-0.6,0-0.8s0-0.4-0.1-0.6c0-0.8-0.1-1.2-0.4-1.4s-1-0.2-2.2-0.2c-1,0-1.9-0.4-2.7-1.2c-0.8-0.8-1.2-1.6-1.2-2.4
		c0-1,0.6-2.1,1.7-3.3c1.1-1.2,2.4-1.8,4-1.8c1,0,2.3,1.2,3.9,3.7c1.6,2.5,2.5,4.7,2.5,6.8c0,0.4,0.1,0.8,0.1,1.1
		c0,2.1-0.5,4.2-1.6,6.2C693.6,66.2,691.4,67.5,688.1,68.1z"/>
	<path class="st4" d="M692.6,88.1c-6.6,0-13-2-19-6.1c-6.1-4.1-9.4-9.2-10.2-15.2l1.2,1c2.9,4.8,6.4,8.6,10.5,11.4s9.3,4.2,15.8,4.2
		c3.4,0,6.7-0.4,9.9-1.2c3.2-0.8,5.8-1.9,7.9-3.4c2.1-1.5,4.5-4,7.2-7.7c2.7-3.7,4-7.6,4-11.7c0-0.7,0-1.3-0.1-1.8
		c0-0.5-1.2-1.2-3.6-2.1s-3.5-2.6-3.5-4.9c0-3.7,1.4-5.5,4.3-5.5c2.3,0,4.3,1.4,6,4.1c1.7,2.7,2.5,6,2.5,9.6c0,3.9-1.3,8.1-3.8,12.6
		c-2.6,4.5-4.9,7.7-6.9,9.5c-2.9,2.1-6.2,3.9-9.9,5.3C701.3,87.4,697.2,88.1,692.6,88.1z"/>
	<path class="st4" d="M769.2,67.4h-3.7c-0.9,0-2-0.3-3.3-0.8s-2-0.8-2.2-0.8c-0.1,0-0.5,0.3-1.1,0.8c-0.6,0.5-1.7,0.8-3.3,0.8
		c-0.9,0-2.2-0.2-3.8-0.5c-1.6-0.3-3-0.5-4-0.5c-2.9,0-5.5,0.9-7.7,2.8c-2,2.3-3.9,4.6-5.8,6.9c-0.2-0.8-0.2-1.3,0-1.5
		c0-2.8,1.2-5.5,3.5-8.1c2.4-2.6,4.5-4.2,6.5-4.9c2-0.7,3.7-1.1,5.1-1.3c1.4-0.2,2.4-0.4,2.8-0.5c-2.8-1.6-5.2-3.1-7.1-4.4
		c-1.9-1.4-2.9-3.5-2.9-6.4c0-1.9,0.6-3.5,1.7-4.8c1.1-1.3,2.6-2,4.5-2c1.2,0,2.2,0.5,2.8,1.4c0.6,1,1,1.8,1,2.5
		c0,1.6-0.7,2.5-2.1,2.7s-2.1,0.5-2.1,1c0,1.2,2.1,2.3,6.4,3.4s6.9,3.2,8,6.4c1.3,0.4,3.1,0.7,5.3,0.7h1.4V67.4z"/>
	<path class="st4" d="M767.5,60.2h6.3c0.7-2.1,1.6-4.1,2.8-5.7s3-2.5,5.2-2.5c3.2,0,5.5,1.4,7,4.1c1.5,2.7,2.5,4.1,2.9,4.1h4.8v7.2
		h-4.8c-0.7,0-1.6,1.1-3,3.2s-3.3,3.2-5.8,3.2c-2.8,0-4.9-1.1-6.3-3.2c-1.4-2.1-2.2-3.2-2.5-3.2c-0.2,0-0.6-0.1-1.2-0.1
		c-0.6,0-1.1,0-1.4,0c-0.9,0-1.7,0-2.3,0c-0.6,0-1.2,0-1.7,0.1V60.2z M780.1,63.7c0.4,2.1,1.2,3.1,2.6,3.1c0.9,0,1.4-0.4,1.6-1.1
		s0.4-1.7,0.4-2.9c-0.1-1-0.4-1.9-0.8-2.7c-0.4-0.7-1-1.1-1.9-1.1c-0.7,0-1.2,0.3-1.6,1c-0.4,0.7-0.6,1.5-0.6,2.5
		C779.9,62.8,780,63.1,780.1,63.7z"/>
	<path class="st4" d="M811.2,53.7c0,3.8-0.5,7.6-1.5,11.3c-1,3.7-3,5.6-5.8,5.6c-0.4,0-1.1-0.5-2.1-1.6c-1-1.1-1.8-1.6-2.5-1.6h-4.8
		v-7.2h6.6c0.6,0,1.3,0.2,1.8,0.6c0.6,0.4,1.1,0.7,1.4,0.9c0.1-2,0.3-4.2,0.4-6.6s0.2-4.7,0.2-6.8c0-2.5-0.2-4.7-0.7-6.7
		c-0.5-1.9-0.8-3.4-1-4.5c-0.2-1-1.1-2.8-2.5-5.2c-1.5-2.4-2.2-4.6-2.2-6.4c0-1.8,0.7-3.3,2-4.6c1.3-1.3,2.7-1.9,4.1-1.9
		c0.9,0,1.8,0.6,2.7,1.9c0.9,1.3,1.3,2.7,1.3,4.2c0,0.5-0.1,1.3-0.2,2.2c-0.1,0.9-0.2,1.6-0.1,1.9c0,2.5,0.3,5.3,0.8,8.4
		c0.5,3.1,0.9,5.2,1.1,6.3c0.2,1.1,0.4,2.6,0.6,4.5C811.1,50.3,811.2,52,811.2,53.7z"/>
	<path class="st4" d="M817.9,32.4c-0.2-1.3-0.6-2.3-1.2-2.9c-0.6-0.7-1.2-1.4-1.8-2.2c-0.2-2.2,0.4-4.2,2.1-6
		c1.6-1.8,3.3-2.7,5.1-2.7c1.3,0,2.2,0.6,2.7,1.7c0.5,1.1,0.7,2.1,0.6,2.9c-0.3,1.2-0.7,2.5-1.1,3.8c-0.4,1.3-0.6,2.8-0.6,4.4
		c0,3.2,0.3,7.4,1,12.5c0.7,5.1,1,8.9,1,11.5c0,2.1-1.2,5.1-3.7,9c-2.4,3.9-5.7,6.5-9.7,7.6c2.2-2.7,3.7-4.8,4.6-6.4
		s1.5-3.2,1.8-4.7s0.6-2.8,0.7-3.9c0.1-1.1,0.1-2.1,0.1-3.1c0-0.9,0-2.1-0.1-3.4s-0.2-2.7-0.3-3.8L817.9,32.4z"/>
</g>
<g>
	<rect x="117.5" y="180.6" class="st2" width="759.3" height="41.9"/>
	<path class="st5" d="M135.4,199.9H129v11.9h-3.6v-11.9h-6.5v-3.6h6.5v-11.9h3.6v11.9h6.4V199.9z"/>
	<path class="st5" d="M146,199.2c1.8,0,3.3,0.6,4.5,1.8c1.2,1.2,1.8,2.7,1.8,4.5c0,1.8-0.6,3.3-1.8,4.5c-1.2,1.2-2.7,1.8-4.5,1.8
		c-1.8,0-3.2-0.6-4.4-1.8c-1.2-1.2-1.8-2.7-1.8-4.5c0-1.8,0.6-3.3,1.8-4.5C142.8,199.8,144.3,199.2,146,199.2z M149.4,205.5
		c0-1-0.3-1.8-1-2.5c-0.7-0.7-1.5-1-2.4-1c-0.9,0-1.7,0.3-2.4,1c-0.7,0.7-1,1.5-1,2.5c0,1,0.3,1.8,1,2.5c0.7,0.7,1.4,1,2.4,1
		c1,0,1.8-0.3,2.4-1C149.1,207.3,149.4,206.4,149.4,205.5z"/>
	<path class="st5" d="M155.4,184.5h3.6v11.7h14v-11.7h3.6v15.3h-8.8v12h-3.7v-12h-8.8V184.5z"/>
	<path class="st5" d="M187.2,203.7l12,4.9v3.6l-18.5-7.5l8.6-7.3l-8.3-7.2l18.2-6.9v3.6l-11.4,4.3l6.6,5.8L187.2,203.7z"/>
	<path class="st5" d="M221.3,208.2v-23.7h3.6v27.3h-22.2v-27.3h3.7v23.7H221.3z"/>
	<path class="st5" d="M235.4,199.2c1.8,0,3.3,0.6,4.5,1.8c1.2,1.2,1.8,2.7,1.8,4.5c0,1.8-0.6,3.3-1.8,4.5c-1.2,1.2-2.7,1.8-4.5,1.8
		c-1.8,0-3.2-0.6-4.4-1.8c-1.2-1.2-1.8-2.7-1.8-4.5c0-1.8,0.6-3.3,1.8-4.5C232.2,199.8,233.7,199.2,235.4,199.2z M238.8,205.5
		c0-1-0.3-1.8-1-2.5c-0.7-0.7-1.5-1-2.4-1c-0.9,0-1.7,0.3-2.4,1c-0.7,0.7-1,1.5-1,2.5c0,1,0.3,1.8,1,2.5c0.7,0.7,1.4,1,2.4,1
		c1,0,1.8-0.3,2.4-1C238.5,207.3,238.8,206.4,238.8,205.5z"/>
	<path class="st5" d="M248.3,211.8h-3.6v-27.3h3.6V211.8z"/>
	<path class="st5" d="M269.3,199.9h-6.4v11.9h-3.6v-11.9h-6.5v-3.6h6.5v-11.9h3.6v11.9h6.4V199.9z"/>
	<path class="st5" d="M292.1,211.8h-3.6v-27.3h3.6V211.8z"/>
	<path class="st5" d="M317.4,200c1.8,0,3.3,0.6,4.5,1.7c1.2,1.1,1.8,2.5,1.8,4.2c0,1.6-0.6,3-1.8,4.2c-1.2,1.1-2.7,1.7-4.5,1.7
		c-1.8,0-3.2-0.6-4.4-1.7c-1.2-1.1-1.8-2.5-1.8-4.2c0-1.7,0.6-3.1,1.8-4.2C314.2,200.5,315.7,200,317.4,200z M317.5,184.5
		c1.8,0,3.3,0.6,4.5,1.7c1.2,1.1,1.8,2.5,1.8,4.2c0,1.6-0.6,3-1.8,4.2c-1.2,1.1-2.7,1.7-4.5,1.7c-1.7,0-3.2-0.6-4.4-1.7
		c-1.2-1.1-1.8-2.5-1.8-4.2c0-1.7,0.6-3.1,1.8-4.2C314.3,185.1,315.8,184.5,317.5,184.5z M321,205.8c0-1-0.3-1.8-1-2.5
		c-0.7-0.7-1.5-1-2.5-1c-1,0-1.8,0.3-2.5,1c-0.7,0.7-1,1.5-1,2.5c0,1,0.3,1.8,1,2.5c0.7,0.7,1.5,1,2.5,1c1,0,1.9-0.3,2.5-1
		C320.6,207.6,321,206.8,321,205.8z M321.1,190.4c0-1-0.3-1.8-1-2.5c-0.7-0.7-1.5-1-2.5-1c-1,0-1.8,0.3-2.5,1c-0.7,0.7-1,1.5-1,2.5
		c0,1,0.3,1.8,1,2.5c0.7,0.7,1.5,1,2.5,1c1,0,1.9-0.3,2.5-1C320.8,192.2,321.1,191.4,321.1,190.4z"/>
	<path class="st5" d="M347.7,211.8h-20.2v-27.3h20.2v3.6h-16.6v20h16.6V211.8z"/>
	<path class="st5" d="M379.9,198.3c0,3.7-1.4,6.9-4,9.5c-2.7,2.6-5.9,3.9-9.6,3.9c-3.7,0-6.9-1.3-9.5-3.9c-2.6-2.6-3.9-5.8-4-9.5
		c0-3.8,1.3-7,3.9-9.7c2.6-2.7,5.8-4.1,9.6-4.1c3.8,0,7,1.4,9.7,4.1C378.6,191.3,379.9,194.5,379.9,198.3z M376.1,198.3
		c0-2.8-0.9-5.2-2.9-7.2c-1.9-2-4.3-3-7-2.9c-2.7,0-5,1-6.9,3c-1.9,2-2.8,4.3-2.8,7.1c0,2.7,1,5,2.8,6.9c1.9,1.9,4.1,2.9,6.8,3
		c2.7,0,5-0.9,6.9-2.9C375.1,203.3,376.1,201,376.1,198.3z M362.8,198.3c-0.1-1,0.2-1.8,0.9-2.6c0.7-0.8,1.5-1.1,2.6-1.1
		c1,0,1.8,0.4,2.5,1.1c0.7,0.7,1,1.6,0.9,2.6c-0.1,0.9-0.4,1.6-1,2.3c-0.6,0.6-1.4,1-2.4,1c-1,0-1.9-0.3-2.5-0.9
		C363.2,200,362.8,199.2,362.8,198.3z"/>
	<path class="st5" d="M405.8,184.6l-8.8,13.5l8.9,13.7h-3.9l-6.9-10.7l-6.9,10.7h-3.9l8.9-13.6l-8.9-13.6H405.8z M390,187.4l5,7.7
		l5-7.7H390z"/>
	<path class="st5" d="M413.2,211.8h-3.6v-27.3h3.6V211.8z"/>
	<path class="st5" d="M423.7,199.2c1.8,0,3.3,0.6,4.5,1.8c1.2,1.2,1.8,2.7,1.8,4.5c0,1.8-0.6,3.3-1.8,4.5c-1.2,1.2-2.7,1.8-4.5,1.8
		c-1.8,0-3.2-0.6-4.4-1.8c-1.2-1.2-1.8-2.7-1.8-4.5c0-1.8,0.6-3.3,1.8-4.5C420.5,199.8,421.9,199.2,423.7,199.2z M427.1,205.5
		c0-1-0.3-1.8-1-2.5c-0.7-0.7-1.5-1-2.4-1c-0.9,0-1.7,0.3-2.4,1c-0.7,0.7-1,1.5-1,2.5c0,1,0.3,1.8,1,2.5c0.7,0.7,1.4,1,2.4,1
		c1,0,1.8-0.3,2.4-1C426.8,207.3,427.1,206.4,427.1,205.5z"/>
	<path class="st5" d="M441.6,199.8v12h-8.6v-3.6h5v-20.1h-4.9v-3.6h8.5v11.7h5v-11.7h8.5v3.6h-4.9v20.1h5v3.6h-8.6v-12H441.6z"/>
	<path class="st5" d="M489.4,184.5l11.5,27.3H497l-9.6-22.7l-9.6,22.7h-3.9l11.6-27.3H489.4z"/>
	<path class="st5" d="M535.8,199.9h-6.4v11.9h-3.6v-11.9h-6.5v-3.6h6.5v-11.9h3.6v11.9h6.4V199.9z"/>
	<path class="st5" d="M567.5,198.3c0,3.7-1.4,6.9-4,9.5c-2.7,2.6-5.9,3.9-9.6,3.9c-3.7,0-6.9-1.3-9.5-3.9c-2.6-2.6-3.9-5.8-4-9.5
		c0-3.8,1.3-7,3.9-9.7c2.6-2.7,5.8-4.1,9.6-4.1c3.8,0,7,1.4,9.7,4.1C566.2,191.3,567.5,194.5,567.5,198.3z M563.7,198.3
		c0-2.8-0.9-5.2-2.9-7.2c-1.9-2-4.3-3-7-2.9c-2.7,0-5,1-6.9,3c-1.9,2-2.8,4.3-2.8,7.1c0,2.7,1,5,2.8,6.9c1.9,1.9,4.1,2.9,6.8,3
		c2.7,0,5-0.9,6.9-2.9C562.7,203.3,563.7,201,563.7,198.3z M550.4,198.3c-0.1-1,0.2-1.8,0.9-2.6s1.5-1.1,2.6-1.1
		c1,0,1.8,0.4,2.5,1.1c0.7,0.7,1,1.6,0.9,2.6c-0.1,0.9-0.4,1.6-1,2.3c-0.6,0.6-1.4,1-2.4,1c-1,0-1.9-0.3-2.5-0.9
		C550.8,200,550.4,199.2,550.4,198.3z"/>
	<path class="st5" d="M577.9,199.2c1.8,0,3.3,0.6,4.5,1.8c1.2,1.2,1.8,2.7,1.8,4.5c0,1.8-0.6,3.3-1.8,4.5c-1.2,1.2-2.7,1.8-4.5,1.8
		c-1.8,0-3.2-0.6-4.4-1.8c-1.2-1.2-1.8-2.7-1.8-4.5c0-1.8,0.6-3.3,1.8-4.5C574.7,199.8,576.2,199.2,577.9,199.2z M581.3,205.5
		c0-1-0.3-1.8-1-2.5c-0.7-0.7-1.5-1-2.4-1c-0.9,0-1.7,0.3-2.4,1c-0.7,0.7-1,1.5-1,2.5c0,1,0.3,1.8,1,2.5c0.7,0.7,1.4,1,2.4,1
		c1,0,1.8-0.3,2.4-1C581,207.3,581.3,206.4,581.3,205.5z"/>
	<path class="st5" d="M614.5,198.3c0,3.7-1.4,6.9-4,9.5c-2.7,2.6-5.9,3.9-9.6,3.9c-3.7,0-6.9-1.3-9.5-3.9c-2.6-2.6-3.9-5.8-4-9.5
		c0-3.8,1.3-7,3.9-9.7c2.6-2.7,5.8-4.1,9.6-4.1c3.8,0,7,1.4,9.7,4.1C613.3,191.3,614.6,194.5,614.5,198.3z M610.8,198.3
		c0-2.8-0.9-5.2-2.9-7.2c-1.9-2-4.3-3-7-2.9c-2.7,0-5,1-6.9,3s-2.8,4.3-2.8,7.1c0,2.7,1,5,2.8,6.9c1.9,1.9,4.1,2.9,6.8,3
		c2.7,0,5-0.9,6.9-2.9C609.8,203.3,610.7,201,610.8,198.3z M597.4,198.3c-0.1-1,0.2-1.8,0.9-2.6c0.7-0.8,1.5-1.1,2.6-1.1
		c1,0,1.8,0.4,2.5,1.1c0.7,0.7,1,1.6,0.9,2.6c-0.1,0.9-0.4,1.6-1,2.3c-0.6,0.6-1.4,1-2.4,1c-1,0-1.9-0.3-2.5-0.9
		C597.8,200,597.5,199.2,597.4,198.3z"/>
	<path class="st5" d="M627.5,199.8v12h-8.6v-3.6h5v-20.1H619v-3.6h8.5v11.7h5v-11.7h8.5v3.6H636v20.1h5v3.6h-8.6v-12H627.5z"/>
	<path class="st5" d="M672.1,198.3c-0.1,3.7-1.4,6.9-4,9.5c-2.6,2.6-5.8,3.9-9.5,3.9c-3.7,0-6.8-1.3-9.4-3.9
		c-2.6-2.6-3.9-5.8-3.9-9.5c0-3.8,1.2-7.1,3.9-9.8c2.6-2.7,5.8-4,9.5-4c3.8,0,7,1.3,9.6,4S672.1,194.5,672.1,198.3z M668.4,198.2
		c0-2.8-1-5.2-2.9-7.2s-4.2-3-6.8-2.9c-2.8,0-5.1,1-6.9,3c-1.9,2-2.8,4.4-2.8,7.2c0.1,2.6,1.1,4.9,2.9,6.9c1.8,1.9,4.1,2.9,6.8,3
		c2.6,0,4.8-1,6.7-3C667.3,203.2,668.3,200.9,668.4,198.2z"/>
	<path class="st5" d="M693.2,199.9h-6.4v11.9h-3.6v-11.9h-6.5v-3.6h6.5v-11.9h3.6v11.9h6.4V199.9z"/>
	<path class="st5" d="M727.8,184.5l11.5,27.3h-3.9l-9.6-22.7l-9.6,22.7h-3.9l11.6-27.3H727.8z"/>
	<path class="st5" d="M749,203.7l12,4.9v3.6l-18.5-7.5l8.6-7.3l-8.3-7.2l18.2-6.9v3.6l-11.4,4.3l6.6,5.8L749,203.7z"/>
	<path class="st5" d="M785.4,200c1.8,0,3.3,0.6,4.5,1.7c1.2,1.1,1.8,2.5,1.8,4.2c0,1.6-0.6,3-1.8,4.2c-1.2,1.1-2.7,1.7-4.5,1.7
		c-1.8,0-3.2-0.6-4.4-1.7c-1.2-1.1-1.8-2.5-1.8-4.2c0-1.7,0.6-3.1,1.8-4.2C782.2,200.5,783.7,200,785.4,200z M785.6,184.5
		c1.8,0,3.3,0.6,4.5,1.7c1.2,1.1,1.8,2.5,1.8,4.2c0,1.6-0.6,3-1.8,4.2c-1.2,1.1-2.7,1.7-4.5,1.7c-1.7,0-3.2-0.6-4.4-1.7
		s-1.8-2.5-1.8-4.2c0-1.7,0.6-3.1,1.8-4.2C782.3,185.1,783.8,184.5,785.6,184.5z M789,205.8c0-1-0.3-1.8-1-2.5c-0.7-0.7-1.5-1-2.5-1
		c-1,0-1.8,0.3-2.5,1c-0.7,0.7-1,1.5-1,2.5c0,1,0.3,1.8,1,2.5c0.7,0.7,1.5,1,2.5,1c1,0,1.9-0.3,2.5-1
		C788.7,207.6,789,206.8,789,205.8z M789.1,190.4c0-1-0.3-1.8-1-2.5c-0.7-0.7-1.5-1-2.5-1c-1,0-1.8,0.3-2.5,1s-1,1.5-1,2.5
		c0,1,0.3,1.8,1,2.5s1.5,1,2.5,1c1,0,1.9-0.3,2.5-1C788.8,192.2,789.1,191.4,789.1,190.4z"/>
	<path class="st5" d="M810.5,211.8h-15.1v-3.6h5.7v-20.1h-5.7v-3.6h15.1v3.6h-5.7v20.1h5.7V211.8z"/>
	<path class="st5" d="M830.4,184.5l11.5,27.3H838l-9.6-22.7l-9.6,22.7h-3.9l11.6-27.3H830.4z"/>
	<path class="st5" d="M851.4,199.2c1.8,0,3.3,0.6,4.5,1.8c1.2,1.2,1.8,2.7,1.8,4.5c0,1.8-0.6,3.3-1.8,4.5c-1.2,1.2-2.7,1.8-4.5,1.8
		c-1.8,0-3.2-0.6-4.4-1.8c-1.2-1.2-1.8-2.7-1.8-4.5c0-1.8,0.6-3.3,1.8-4.5C848.2,199.8,849.7,199.2,851.4,199.2z M854.8,205.5
		c0-1-0.3-1.8-1-2.5c-0.7-0.7-1.5-1-2.4-1c-0.9,0-1.7,0.3-2.4,1s-1,1.5-1,2.5c0,1,0.3,1.8,1,2.5s1.4,1,2.4,1c1,0,1.8-0.3,2.4-1
		C854.5,207.3,854.8,206.4,854.8,205.5z"/>
</g>
<g>
	<path d="M72,143.8v-34.7h25.1v6.6H81.3v6.1h14.6v6.6H81.3v8.8h15.9v6.6H72z M93.3,96l-7.5,9.2h-5.9l5.2-9.2H93.3z"/>
	<path d="M116.7,144.5c-2.3,0-4.4-0.3-6.4-0.8c-1.9-0.5-3.6-1.4-5-2.5c-1.4-1.1-2.5-2.6-3.3-4.3c-0.8-1.7-1.2-3.7-1.2-6.1
		c0-2.5,0.4-4.6,1.3-6.4c0.8-1.8,2-3.2,3.4-4.3c1.4-1.1,3-1.9,4.9-2.4c1.9-0.5,3.9-0.8,5.9-0.8c1.5,0,3.1,0.2,4.6,0.5
		c1.5,0.3,3.1,0.9,4.7,1.6v7h-1.1c-0.3-0.3-0.8-0.7-1.3-1c-0.5-0.4-1.1-0.7-1.7-1c-0.6-0.3-1.3-0.6-2.1-0.8
		c-0.8-0.2-1.7-0.3-2.7-0.3c-2.2,0-4,0.7-5.2,2.2c-1.2,1.5-1.8,3.4-1.8,5.9c0,2.6,0.7,4.6,2,5.9c1.3,1.3,3,1.9,5.2,1.9
		c1.1,0,2.1-0.1,2.9-0.3c0.8-0.2,1.5-0.5,2.1-0.8c0.6-0.3,1.1-0.7,1.5-1c0.4-0.4,0.8-0.7,1.1-0.9h1.1v7c-0.5,0.2-1.1,0.4-1.7,0.7
		c-0.7,0.3-1.3,0.5-2,0.7c-0.8,0.2-1.6,0.4-2.4,0.5C118.9,144.4,117.9,144.5,116.7,144.5z"/>
	<path d="M156.9,130.7c0,4.3-1.3,7.7-3.8,10.2c-2.5,2.5-6.1,3.7-10.7,3.7c-4.6,0-8.1-1.2-10.7-3.7c-2.5-2.5-3.8-5.9-3.8-10.2
		c0-4.4,1.3-7.8,3.8-10.2c2.5-2.5,6.1-3.7,10.7-3.7c4.6,0,8.2,1.2,10.7,3.7C155.6,123,156.9,126.4,156.9,130.7z M147.9,130.8
		c0-1.6-0.1-2.8-0.4-3.9c-0.3-1-0.7-1.9-1.1-2.5c-0.5-0.7-1.1-1.1-1.7-1.4c-0.6-0.3-1.4-0.4-2.2-0.4c-0.8,0-1.5,0.1-2.1,0.3
		c-0.6,0.2-1.2,0.7-1.7,1.3c-0.5,0.6-0.9,1.4-1.2,2.5c-0.3,1.1-0.4,2.4-0.4,4s0.1,2.9,0.4,3.9c0.3,1,0.6,1.8,1.1,2.4
		c0.5,0.6,1,1,1.7,1.3s1.5,0.4,2.3,0.4c0.7,0,1.4-0.1,2.1-0.4s1.3-0.7,1.7-1.3c0.5-0.7,0.9-1.5,1.2-2.4
		C147.8,133.7,147.9,132.4,147.9,130.8z"/>
	<path d="M170.2,143.8h-8.7v-36.3h8.7V143.8z"/>
	<path d="M191.3,144.5c-5.3,0-9.4-1.2-12.2-3.5s-4.2-5.7-4.2-10.1c0-4.3,1.3-7.7,3.9-10.2c2.6-2.5,6.3-3.8,11-3.8
		c4.3,0,7.5,1.1,9.7,3.2c2.2,2.2,3.2,5.3,3.2,9.3v2.9h-19.2c0.1,1.2,0.4,2.2,0.8,3c0.5,0.8,1.1,1.5,1.8,1.9c0.7,0.5,1.6,0.8,2.6,1
		c1,0.2,2.1,0.3,3.3,0.3c1,0,2-0.1,3-0.3c1-0.2,1.9-0.5,2.7-0.8c0.7-0.3,1.4-0.6,2-1c0.6-0.3,1.1-0.6,1.5-0.9h0.9v6.7
		c-0.7,0.3-1.4,0.5-2,0.7c-0.6,0.2-1.4,0.5-2.4,0.7c-0.9,0.2-1.9,0.4-2.9,0.5C194,144.4,192.8,144.5,191.3,144.5z M194.2,127.3
		c0-1.7-0.5-3-1.3-3.9c-0.8-0.9-2-1.4-3.7-1.4c-1.7,0-3,0.5-4,1.4c-1,0.9-1.5,2.2-1.6,3.9H194.2z"/>
	<path d="M234.3,144.4c-2.8,0-5.3-0.3-7.5-0.8c-2.2-0.5-4.2-1.2-6-1.9v-8.3h0.8c1.9,1.5,3.9,2.6,6.2,3.4c2.2,0.8,4.4,1.2,6.5,1.2
		c0.5,0,1.2-0.1,2.1-0.2c0.9-0.1,1.6-0.3,2.1-0.5c0.6-0.3,1.2-0.6,1.6-1.1c0.4-0.5,0.7-1.1,0.7-1.9c0-0.9-0.4-1.6-1.1-2.1
		c-0.7-0.5-1.6-0.9-2.6-1.2c-1.3-0.3-2.6-0.6-4.1-0.9c-1.4-0.3-2.8-0.6-4-1c-2.9-0.9-4.9-2.2-6.2-3.8c-1.2-1.6-1.9-3.6-1.9-6
		c0-3.2,1.5-5.9,4.4-7.9c2.9-2,6.6-3,11-3c2.2,0,4.4,0.2,6.6,0.6c2.2,0.4,4.1,1,5.9,1.7v7.9h-0.8c-1.4-1.1-3.1-2-5.1-2.8
		c-2-0.8-4-1.1-6.1-1.1c-0.8,0-1.5,0.1-2.2,0.2c-0.6,0.1-1.3,0.3-2,0.6c-0.6,0.2-1.1,0.6-1.5,1.1c-0.4,0.5-0.6,1-0.6,1.6
		c0,0.9,0.3,1.6,1,2.1c0.7,0.5,2,1,3.9,1.4c1.2,0.3,2.5,0.5,3.6,0.8c1.2,0.2,2.4,0.6,3.7,1c2.6,0.9,4.5,2,5.8,3.5
		c1.3,1.5,1.9,3.4,1.9,5.8c0,3.5-1.5,6.2-4.4,8.3C243.2,143.4,239.2,144.4,234.3,144.4z"/>
	<path d="M280.7,143.8H272v-2.9c-1.5,1.2-2.9,2.1-4.2,2.7c-1.3,0.6-2.8,0.9-4.5,0.9c-2.8,0-4.9-0.8-6.5-2.5
		c-1.6-1.6-2.3-4.1-2.3-7.4v-17h8.8v13c0,1.4,0,2.5,0.1,3.3c0.1,0.9,0.3,1.6,0.5,2.2c0.3,0.5,0.7,1,1.2,1.2c0.6,0.3,1.3,0.4,2.3,0.4
		c0.6,0,1.3-0.1,2.2-0.4c0.8-0.3,1.6-0.7,2.3-1.1v-18.6h8.7V143.8z"/>
	<path d="M314.9,130.4c0,4.2-1.1,7.6-3.4,10.1c-2.3,2.6-5.1,3.8-8.4,3.8c-1.4,0-2.6-0.1-3.6-0.4c-1-0.3-2.1-0.8-3.3-1.4v10.9h-8.7
		v-35.8h8.7v2.7c1.3-1,2.6-1.9,3.9-2.5c1.3-0.6,2.9-1,4.6-1c3.2,0,5.8,1.2,7.5,3.6C314,122.9,314.9,126.2,314.9,130.4z M306,130.5
		c0-2.5-0.4-4.4-1.3-5.5c-0.8-1.2-2.2-1.7-3.9-1.7c-0.8,0-1.6,0.1-2.3,0.3c-0.8,0.2-1.5,0.6-2.3,1v13.2c0.5,0.2,1,0.3,1.5,0.4
		c0.6,0.1,1.2,0.1,2,0.1c2.1,0,3.7-0.6,4.7-1.9C305.5,135.1,306,133.1,306,130.5z"/>
	<path d="M334,144.5c-5.3,0-9.4-1.2-12.2-3.5s-4.2-5.7-4.2-10.1c0-4.3,1.3-7.7,3.9-10.2c2.6-2.5,6.3-3.8,11-3.8
		c4.3,0,7.5,1.1,9.7,3.2c2.2,2.2,3.2,5.3,3.2,9.3v2.9h-19.2c0.1,1.2,0.4,2.2,0.8,3c0.5,0.8,1.1,1.5,1.8,1.9c0.7,0.5,1.6,0.8,2.6,1
		c1,0.2,2.1,0.3,3.3,0.3c1,0,2-0.1,3-0.3c1-0.2,1.9-0.5,2.7-0.8c0.7-0.3,1.4-0.6,2-1c0.6-0.3,1.1-0.6,1.5-0.9h0.9v6.7
		c-0.7,0.3-1.4,0.5-2,0.7c-0.6,0.2-1.4,0.5-2.4,0.7c-0.9,0.2-1.9,0.4-2.9,0.5C336.7,144.4,335.4,144.5,334,144.5z M336.9,127.3
		c0-1.7-0.5-3-1.3-3.9c-0.8-0.9-2-1.4-3.7-1.4c-1.7,0-3,0.5-4,1.4c-1,0.9-1.5,2.2-1.6,3.9H336.9z M340.7,104.7l-7.5,9.2h-5.9
		l5.2-9.2H340.7z"/>
	<path d="M368.8,125.3h-0.7c-0.3-0.1-0.8-0.2-1.4-0.2c-0.6-0.1-1.3-0.1-2.1-0.1c-0.9,0-1.9,0.1-2.9,0.4c-1,0.2-2,0.5-2.9,0.9v17.5
		H350v-26.2h8.7v3.8c0.4-0.3,1-0.8,1.7-1.3c0.7-0.5,1.4-0.9,1.9-1.2c0.6-0.4,1.4-0.7,2.2-0.9c0.8-0.3,1.6-0.4,2.4-0.4
		c0.3,0,0.6,0,0.9,0c0.3,0,0.7,0,0.9,0.1V125.3z"/>
	<path d="M381.2,113.9h-9.2v-6.4h9.2V113.9z M380.9,143.8h-8.7v-26.2h8.7V143.8z"/>
	<path d="M402,144.5c-5.3,0-9.4-1.2-12.2-3.5s-4.2-5.7-4.2-10.1c0-4.3,1.3-7.7,3.9-10.2c2.6-2.5,6.3-3.8,11-3.8
		c4.3,0,7.5,1.1,9.7,3.2c2.2,2.2,3.2,5.3,3.2,9.3v2.9h-19.2c0.1,1.2,0.4,2.2,0.8,3c0.5,0.8,1.1,1.5,1.8,1.9c0.7,0.5,1.6,0.8,2.6,1
		c1,0.2,2.1,0.3,3.3,0.3c1,0,2-0.1,3-0.3c1-0.2,1.9-0.5,2.7-0.8c0.7-0.3,1.4-0.6,2-1c0.6-0.3,1.1-0.6,1.5-0.9h0.9v6.7
		c-0.7,0.3-1.4,0.5-2,0.7c-0.6,0.2-1.4,0.5-2.4,0.7c-0.9,0.2-1.9,0.4-2.9,0.5C404.6,144.4,403.4,144.5,402,144.5z M404.9,127.3
		c0-1.7-0.5-3-1.3-3.9c-0.8-0.9-2-1.4-3.7-1.4c-1.7,0-3,0.5-4,1.4c-1,0.9-1.5,2.2-1.6,3.9H404.9z"/>
	<path d="M444,143.8h-8.7v-2.9c-1.5,1.2-2.9,2.1-4.2,2.7c-1.3,0.6-2.8,0.9-4.5,0.9c-2.8,0-4.9-0.8-6.5-2.5c-1.6-1.6-2.3-4.1-2.3-7.4
		v-17h8.8v13c0,1.4,0,2.5,0.1,3.3c0.1,0.9,0.3,1.6,0.5,2.2c0.3,0.5,0.7,1,1.2,1.2c0.6,0.3,1.3,0.4,2.3,0.4c0.6,0,1.3-0.1,2.2-0.4
		c0.8-0.3,1.6-0.7,2.3-1.1v-18.6h8.7V143.8z"/>
	<path d="M469.5,125.3h-0.7c-0.3-0.1-0.8-0.2-1.4-0.2c-0.6-0.1-1.3-0.1-2.1-0.1c-0.9,0-1.9,0.1-2.9,0.4c-1,0.2-2,0.5-2.9,0.9v17.5
		h-8.7v-26.2h8.7v3.8c0.4-0.3,1-0.8,1.7-1.3c0.7-0.5,1.4-0.9,1.9-1.2c0.6-0.4,1.4-0.7,2.2-0.9c0.8-0.3,1.6-0.4,2.4-0.4
		c0.3,0,0.6,0,0.9,0c0.3,0,0.7,0,0.9,0.1V125.3z"/>
	<path d="M487.2,144.5c-5.3,0-9.4-1.2-12.2-3.5s-4.2-5.7-4.2-10.1c0-4.3,1.3-7.7,3.9-10.2c2.6-2.5,6.3-3.8,11-3.8
		c4.3,0,7.5,1.1,9.7,3.2c2.2,2.2,3.2,5.3,3.2,9.3v2.9h-19.2c0.1,1.2,0.4,2.2,0.8,3c0.5,0.8,1.1,1.5,1.8,1.9c0.7,0.5,1.6,0.8,2.6,1
		c1,0.2,2.1,0.3,3.3,0.3c1,0,2-0.1,3-0.3c1-0.2,1.9-0.5,2.7-0.8c0.7-0.3,1.4-0.6,2-1s1.1-0.6,1.5-0.9h0.9v6.7
		c-0.7,0.3-1.4,0.5-2,0.7c-0.6,0.2-1.4,0.5-2.4,0.7c-0.9,0.2-1.9,0.4-2.9,0.5C489.9,144.4,488.7,144.5,487.2,144.5z M490.1,127.3
		c0-1.7-0.5-3-1.3-3.9c-0.8-0.9-2-1.4-3.7-1.4c-1.7,0-3,0.5-4,1.4c-1,0.9-1.5,2.2-1.6,3.9H490.1z"/>
	<path d="M543.7,143.8H535v-2.7c-0.6,0.4-1.2,0.9-1.9,1.4c-0.7,0.5-1.4,0.9-1.9,1.1c-0.7,0.3-1.4,0.5-2.1,0.7
		c-0.7,0.2-1.5,0.2-2.4,0.2c-3.2,0-5.7-1.2-7.6-3.7c-1.9-2.5-2.8-5.8-2.8-9.9c0-2.3,0.3-4.3,0.9-5.9s1.5-3.1,2.6-4.4
		c1-1.1,2.2-2,3.7-2.7c1.4-0.7,3-1,4.6-1c1.5,0,2.7,0.1,3.6,0.4c0.9,0.3,2,0.7,3.3,1.3v-11.1h8.7V143.8z M535,136.6v-12.8
		c-0.4-0.2-1-0.4-1.7-0.5c-0.7-0.1-1.3-0.2-1.8-0.2c-2.1,0-3.7,0.7-4.7,2.1c-1.1,1.4-1.6,3.3-1.6,5.7c0,2.6,0.4,4.4,1.3,5.6
		s2.2,1.7,4.1,1.7c0.8,0,1.5-0.1,2.3-0.4C533.6,137.4,534.4,137.1,535,136.6z"/>
	<path d="M564.8,144.5c-5.3,0-9.4-1.2-12.2-3.5c-2.8-2.4-4.2-5.7-4.2-10.1c0-4.3,1.3-7.7,3.9-10.2c2.6-2.5,6.3-3.8,11-3.8
		c4.3,0,7.5,1.1,9.7,3.2c2.2,2.2,3.2,5.3,3.2,9.3v2.9h-19.2c0.1,1.2,0.4,2.2,0.8,3c0.5,0.8,1.1,1.5,1.8,1.9c0.7,0.5,1.6,0.8,2.6,1
		c1,0.2,2.1,0.3,3.3,0.3c1,0,2-0.1,3-0.3c1-0.2,1.9-0.5,2.7-0.8c0.7-0.3,1.4-0.6,2-1c0.6-0.3,1.1-0.6,1.5-0.9h0.9v6.7
		c-0.7,0.3-1.4,0.5-2,0.7c-0.6,0.2-1.4,0.5-2.4,0.7c-0.9,0.2-1.9,0.4-2.9,0.5C567.5,144.4,566.2,144.5,564.8,144.5z M567.7,127.3
		c0-1.7-0.5-3-1.3-3.9c-0.8-0.9-2-1.4-3.7-1.4c-1.7,0-3,0.5-4,1.4c-1,0.9-1.5,2.2-1.6,3.9H567.7z"/>
	<path d="M603.4,143.8v-28.1h-11v-6.6h31.3v6.6h-11v28.1H603.4z"/>
	<path d="M641.5,144.5c-5.3,0-9.4-1.2-12.2-3.5s-4.2-5.7-4.2-10.1c0-4.3,1.3-7.7,3.9-10.2c2.6-2.5,6.3-3.8,11-3.8
		c4.3,0,7.5,1.1,9.7,3.2c2.2,2.2,3.2,5.3,3.2,9.3v2.9h-19.2c0.1,1.2,0.4,2.2,0.8,3c0.5,0.8,1.1,1.5,1.8,1.9c0.7,0.5,1.6,0.8,2.6,1
		c1,0.2,2.1,0.3,3.3,0.3c1,0,2-0.1,3-0.3c1-0.2,1.9-0.5,2.7-0.8c0.7-0.3,1.4-0.6,2-1s1.1-0.6,1.5-0.9h0.9v6.7
		c-0.7,0.3-1.4,0.5-2,0.7c-0.6,0.2-1.4,0.5-2.4,0.7c-0.9,0.2-1.9,0.4-2.9,0.5C644.1,144.4,642.9,144.5,641.5,144.5z M644.4,127.3
		c0-1.7-0.5-3-1.3-3.9c-0.8-0.9-2-1.4-3.7-1.4c-1.7,0-3,0.5-4,1.4c-1,0.9-1.5,2.2-1.6,3.9H644.4z"/>
	<path d="M671.2,144.5c-2.3,0-4.4-0.3-6.4-0.8c-1.9-0.5-3.6-1.4-5-2.5c-1.4-1.1-2.5-2.6-3.3-4.3c-0.8-1.7-1.2-3.7-1.2-6.1
		c0-2.5,0.4-4.6,1.3-6.4c0.8-1.8,2-3.2,3.4-4.3c1.4-1.1,3-1.9,4.9-2.4c1.9-0.5,3.9-0.8,5.9-0.8c1.5,0,3.1,0.2,4.6,0.5
		s3.1,0.9,4.7,1.6v7h-1.1c-0.3-0.3-0.8-0.7-1.3-1c-0.5-0.4-1.1-0.7-1.7-1c-0.6-0.3-1.3-0.6-2.1-0.8c-0.8-0.2-1.7-0.3-2.7-0.3
		c-2.2,0-4,0.7-5.2,2.2c-1.2,1.5-1.8,3.4-1.8,5.9c0,2.6,0.7,4.6,2,5.9s3,1.9,5.2,1.9c1.1,0,2.1-0.1,2.9-0.3c0.8-0.2,1.5-0.5,2.1-0.8
		c0.6-0.3,1.1-0.7,1.5-1c0.4-0.4,0.8-0.7,1.1-0.9h1.1v7c-0.5,0.2-1.1,0.4-1.7,0.7c-0.7,0.3-1.3,0.5-2,0.7c-0.8,0.2-1.6,0.4-2.4,0.5
		C673.4,144.4,672.5,144.5,671.2,144.5z"/>
	<path d="M710.7,143.8h-8.8v-13c0-1.1,0-2.1-0.1-3.2c-0.1-1-0.3-1.8-0.5-2.3c-0.3-0.6-0.7-1-1.3-1.3c-0.6-0.3-1.3-0.4-2.3-0.4
		c-0.7,0-1.4,0.1-2.2,0.4c-0.7,0.2-1.5,0.6-2.3,1.2v18.6h-8.7v-36.3h8.7v13c1.4-1.1,2.8-2,4.2-2.7c1.4-0.6,2.9-1,4.5-1
		c2.9,0,5.1,0.8,6.6,2.5c1.5,1.7,2.3,4.1,2.3,7.3V143.8z"/>
	<path d="M743.5,143.8h-8.8v-13c0-1.1,0-2.1-0.1-3.2c-0.1-1-0.3-1.8-0.5-2.3c-0.3-0.6-0.7-1-1.3-1.3c-0.6-0.3-1.3-0.4-2.3-0.4
		c-0.7,0-1.4,0.1-2.2,0.4c-0.7,0.2-1.5,0.6-2.3,1.2v18.6h-8.7v-26.2h8.7v2.9c1.4-1.1,2.8-2,4.2-2.7c1.4-0.6,2.9-1,4.5-1
		c2.9,0,5.1,0.8,6.6,2.5c1.5,1.7,2.3,4.1,2.3,7.3V143.8z"/>
	<path d="M776.9,130.7c0,4.3-1.3,7.7-3.8,10.2c-2.5,2.5-6.1,3.7-10.7,3.7c-4.6,0-8.1-1.2-10.7-3.7s-3.8-5.9-3.8-10.2
		c0-4.4,1.3-7.8,3.8-10.2c2.5-2.5,6.1-3.7,10.7-3.7c4.6,0,8.2,1.2,10.7,3.7C775.6,123,776.9,126.4,776.9,130.7z M767.9,130.8
		c0-1.6-0.1-2.8-0.4-3.9c-0.3-1-0.7-1.9-1.1-2.5c-0.5-0.7-1.1-1.1-1.7-1.4c-0.6-0.3-1.4-0.4-2.2-0.4c-0.8,0-1.5,0.1-2.1,0.3
		c-0.6,0.2-1.2,0.7-1.7,1.3c-0.5,0.6-0.9,1.4-1.2,2.5c-0.3,1.1-0.4,2.4-0.4,4s0.1,2.9,0.4,3.9c0.3,1,0.6,1.8,1.1,2.4
		c0.5,0.6,1,1,1.7,1.3c0.7,0.3,1.5,0.4,2.3,0.4c0.7,0,1.4-0.1,2.1-0.4c0.7-0.3,1.3-0.7,1.7-1.3c0.5-0.7,0.9-1.5,1.2-2.4
		C767.8,133.7,767.9,132.4,767.9,130.8z"/>
	<path d="M790.2,143.8h-8.7v-36.3h8.7V143.8z"/>
	<path d="M823.9,130.7c0,4.3-1.3,7.7-3.8,10.2c-2.5,2.5-6.1,3.7-10.7,3.7c-4.6,0-8.1-1.2-10.7-3.7s-3.8-5.9-3.8-10.2
		c0-4.4,1.3-7.8,3.8-10.2c2.5-2.5,6.1-3.7,10.7-3.7c4.6,0,8.2,1.2,10.7,3.7C822.6,123,823.9,126.4,823.9,130.7z M814.9,130.8
		c0-1.6-0.1-2.8-0.4-3.9c-0.3-1-0.7-1.9-1.1-2.5c-0.5-0.7-1.1-1.1-1.7-1.4c-0.6-0.3-1.4-0.4-2.2-0.4c-0.8,0-1.5,0.1-2.1,0.3
		c-0.6,0.2-1.2,0.7-1.7,1.3c-0.5,0.6-0.9,1.4-1.2,2.5c-0.3,1.1-0.4,2.4-0.4,4s0.1,2.9,0.4,3.9c0.3,1,0.6,1.8,1.1,2.4
		c0.5,0.6,1,1,1.7,1.3c0.7,0.3,1.5,0.4,2.3,0.4c0.7,0,1.4-0.1,2.1-0.4c0.7-0.3,1.3-0.7,1.7-1.3c0.5-0.7,0.9-1.5,1.2-2.4
		C814.8,133.7,814.9,132.4,814.9,130.8z"/>
	<path d="M854,140.8c0,2.4-0.4,4.5-1.1,6.2s-1.8,3-3.1,4c-1.3,1-2.9,1.7-4.7,2.1c-1.8,0.4-3.8,0.6-6,0.6c-1.9,0-3.6-0.1-5.3-0.3
		c-1.7-0.2-3.1-0.5-4.4-0.8V146h1c0.4,0.2,0.9,0.3,1.5,0.5c0.6,0.2,1.2,0.4,1.8,0.5c0.7,0.2,1.4,0.3,2.1,0.4
		c0.7,0.1,1.4,0.2,2.1,0.2c1.5,0,2.7-0.1,3.7-0.4s1.7-0.7,2.2-1.2c0.5-0.5,0.8-1.2,1-1.9c0.2-0.7,0.3-1.7,0.3-2.8v-0.5
		c-1,0.8-2.1,1.5-3.4,1.9c-1.3,0.5-2.6,0.7-4,0.7c-3.6,0-6.4-1.1-8.4-3.3c-2-2.2-3-5.6-3-10.1c0-2.1,0.3-3.9,0.9-5.5
		c0.6-1.6,1.5-3,2.5-4.2c1-1.1,2.3-2,3.7-2.6c1.5-0.6,3-0.9,4.6-0.9c1.4,0,2.7,0.2,3.8,0.5c1.1,0.3,2.2,0.8,3.1,1.4l0.3-1.2h8.5
		V140.8z M845.3,135.6v-11.9c-0.4-0.2-1-0.3-1.6-0.5c-0.6-0.1-1.3-0.2-1.9-0.2c-2.1,0-3.7,0.6-4.7,1.9c-1.1,1.3-1.6,3-1.6,5.3
		c0,1.1,0.1,2.1,0.2,2.9c0.2,0.8,0.5,1.5,0.9,2.1c0.4,0.6,1,1,1.6,1.3c0.7,0.3,1.5,0.5,2.6,0.5c0.8,0,1.6-0.1,2.3-0.4
		S844.6,136,845.3,135.6z"/>
	<path d="M869.7,113.9h-9.2v-6.4h9.2V113.9z M869.4,143.8h-8.7v-26.2h8.7V143.8z"/>
	<path d="M890.5,144.5c-5.3,0-9.4-1.2-12.2-3.5c-2.8-2.4-4.2-5.7-4.2-10.1c0-4.3,1.3-7.7,3.9-10.2c2.6-2.5,6.3-3.8,11-3.8
		c4.3,0,7.5,1.1,9.7,3.2c2.2,2.2,3.2,5.3,3.2,9.3v2.9h-19.2c0.1,1.2,0.4,2.2,0.8,3c0.5,0.8,1.1,1.5,1.8,1.9c0.7,0.5,1.6,0.8,2.6,1
		c1,0.2,2.1,0.3,3.3,0.3c1,0,2-0.1,3-0.3c1-0.2,1.9-0.5,2.7-0.8c0.7-0.3,1.4-0.6,2-1s1.1-0.6,1.5-0.9h0.9v6.7
		c-0.7,0.3-1.4,0.5-2,0.7c-0.6,0.2-1.4,0.5-2.4,0.7c-0.9,0.2-1.9,0.4-2.9,0.5C893.2,144.4,891.9,144.5,890.5,144.5z M893.4,127.3
		c0-1.7-0.5-3-1.3-3.9c-0.8-0.9-2-1.4-3.7-1.4c-1.7,0-3,0.5-4,1.4c-1,0.9-1.5,2.2-1.6,3.9H893.4z"/>
</g>
</svg>
